<svg width="334" height="213" viewBox="0 0 334 213" fill="none" xmlns="http://www.w3.org/2000/svg">
<rect x="107.286" width="120" height="120" rx="20" fill="white"/>
<g clip-path="url(#clip0_1201_32)">
<path d="M154.532 13.3386C161.639 12.4079 168.132 13.3175 174.034 17.0825C180.358 21.1226 184.42 26.8125 186.048 34.1523C188.608 51.5605 177.08 62.0096 172.151 66.1131C171.876 66.3458 171.348 66.9592 171.305 67.1284C171.622 67.1496 178.751 66.5573 181.924 65.817C188.163 64.3787 192.267 60.3598 194.488 54.3949C194.805 53.5276 195.059 52.6604 195.44 51.8143C195.905 50.7567 196.645 50.5663 197.386 51.3913C198.845 52.9354 199.987 55.5159 200.241 56.2774C200.749 57.8427 201.891 58.4984 203.372 59.006C207.031 60.2752 210.246 62.3058 212.446 65.5843C213.8 67.5726 214.667 69.7513 214.096 72.2472C213.842 73.3472 213.292 74.0875 212.15 74.5528C208.723 76.2873 204.302 75.9066 200.516 74.024C198.993 73.2626 197.576 72.2684 195.863 71.2531C198.147 75.1451 198.888 79.0371 196.434 83.2675C198.591 82.2945 200.389 81.3638 202.272 80.6658C203.668 80.137 205.149 79.7351 206.629 79.5236C207.856 79.3544 208.893 80.1581 209.21 81.1523C209.464 81.9561 208.977 83.2463 208.11 83.8386C207.729 84.0924 207.158 84.3251 206.756 84.2194C205.466 83.9444 204.514 84.4732 203.541 85.15C201.933 86.2711 200.368 87.5191 198.655 88.4498C194.149 90.8823 189.39 89.317 187.064 84.7482C185.689 82.0618 184.969 79.2274 185.012 76.2027C185.012 75.6104 185.012 75.0182 184.843 74.3836C182.981 76.0969 183.15 78.3391 183.447 80.7292C181.501 80.0101 179.703 79.9255 177.651 80.9619C178.433 81.3215 179.005 81.533 179.533 81.8292C180.887 82.5695 182.304 83.2463 183.531 84.1559C186.831 86.5884 187.825 90.0785 186.196 93.8647C185.477 95.5146 184.356 97.0164 183.383 98.5605C183.023 99.1527 182.516 99.6392 181.945 100.38C182.727 100.485 183.298 100.549 183.87 100.612C186.789 100.93 189.602 101.543 191.802 103.658C192.436 104.272 192.838 105.139 193.261 105.943C193.578 106.556 193.325 106.958 192.584 106.937C192.373 106.937 192.161 106.937 191.95 106.937C179.11 106.937 166.292 106.894 153.453 106.958C148.44 106.979 143.85 105.541 139.577 103.108C133.358 99.5969 128.303 94.7954 124.559 88.7036C120.138 81.5119 119.356 73.749 121.238 65.6055C122.613 59.7252 126.019 55.2409 130.355 51.222C136.362 45.7225 142.898 40.921 149.688 36.4156C152.564 34.5119 155.399 32.5236 158.001 30.2603C160.666 27.9547 162.294 24.9934 161.512 21.2706C160.983 18.7747 159.375 16.9556 157.429 15.4115C156.583 14.7346 155.674 14.1424 154.532 13.3386ZM204.176 67.8053C204.493 67.7842 204.81 67.3611 204.831 67.0227C204.874 65.6689 203.16 64.2941 201.785 64.4633C201.109 64.5479 200.897 64.8863 201.003 65.5209C201.214 66.8112 202.399 67.763 204.176 67.8053Z" fill="#3C26E6"/>
</g>
<path d="M12.0673 159.751C8.14061 160.805 4.50128 163.103 2.7295 165.689C0.814061 168.467 0.478859 173.638 2.05909 176.895C3.92665 180.725 7.51809 182.785 17.3826 185.562C20.6867 186.52 24.3739 187.765 25.5711 188.387C30.8864 191.069 31.078 196.528 25.9063 199.162C24.2782 200.023 23.0331 200.263 20.0163 200.263C14.1263 200.263 10.8222 198.156 9.57718 193.511L9.05044 191.452H4.54916H0L0.335201 193.942C1.48446 202.37 7.37443 206.967 17.9093 207.589C31.1737 208.404 40.2721 201.46 38.4524 191.931C37.8778 188.818 36.9679 187.142 34.8609 185.323C32.0357 182.832 30.1681 182.018 20.5431 179.193C11.7799 176.607 9.72084 175.171 9.72084 171.723C9.72084 168.036 14.27 165.641 20.2079 166.216C25.188 166.647 28.3963 169.041 29.4977 173.112L30.0245 175.171H34.43H38.8834L38.596 173.351C37.5904 166.264 34.6694 162.577 28.109 160.23C24.1345 158.842 16.377 158.554 12.0673 159.751Z" fill="white"/>
<path d="M63.3893 159.359C58.5528 160.316 52.1002 163.39 49.658 166.12C47.6947 168.275 45.5877 172.058 44.6779 175.122C43.4807 178.905 43.3849 186.615 44.4384 190.733C47.3595 201.89 57.4155 208.355 70.5841 207.541L75.1333 207.254L76.522 210.127L77.9107 213H82.6514H87.3921L86.7217 211.947C86.3386 211.324 85.1893 209.361 84.2316 207.589L82.412 204.333L85.4767 201.507C92.1807 195.378 94.6229 185.849 92.0849 175.888C89.3554 165.306 81.6937 159.559 69.5785 159.128C66.8011 159.033 64.0597 159.263 63.3893 159.359ZM76.0431 169.041C79.0599 170.621 81.2148 172.824 82.6035 175.888C83.5612 177.948 83.7049 179.049 83.7049 183.55C83.7049 188.147 83.5612 189.105 82.5556 190.972C81.4542 193.127 78.8205 196.24 78.1501 196.24C77.9586 196.24 77.0966 194.947 76.1868 193.367L74.6066 190.494H70.4405C68.0941 190.494 66.2265 190.589 66.2265 190.685C66.2265 190.781 67.2321 192.744 68.4293 194.995L70.632 199.113H67.711C63.2097 199.113 59.7619 197.677 56.793 194.66C53.7762 191.499 52.8185 188.674 52.8185 182.88C52.8663 178.331 53.4889 176.08 55.5001 173.159C58.3732 169.041 62.2041 167.46 68.8602 167.652C72.8827 167.796 74.0319 167.987 76.0431 169.041Z" fill="white"/>
<path d="M99.8419 159.718C99.6982 160.101 99.7461 168.275 99.8419 177.421C100.033 193.511 100.081 194.181 101.183 196.959C103.433 202.705 109.275 206.727 116.65 207.493L119.858 207.829V203.471C119.858 199.583 120.134 199.583 119.056 199.583C117.44 199.583 112.867 197.198 111.574 195.857C108.94 193.128 108.844 192.361 108.844 175.17V159.368H104.535C101.135 159.368 99.8419 159.368 99.8419 159.718Z" fill="white"/>
<path d="M130.872 174.692V189.776L135.398 189.776L139.731 189.776V174.692V159.32H135.218H130.872V174.692Z" fill="white"/>
<path d="M148.59 159.368C148.59 159.538 148.59 161.475 148.59 163.295V166.551H153.139H157.688V162.959V159.368H153.474C151.128 159.368 148.327 159.368 148.59 159.368Z" fill="white"/>
<path d="M167.266 163.438V167.508H178.184C187.857 167.508 189.293 167.652 191.065 168.466C193.986 169.759 195.135 171.818 194.896 175.314C194.704 178.522 193.699 180.15 190.921 181.587C189.245 182.496 188.096 182.592 178.184 182.736L167.266 182.879V195.09V207.253H171.815H176.364V198.873V190.493H181.823H187.33L191.783 198.873L196.237 207.253H201.169C203.85 207.253 206.053 207.11 206.053 206.966C206.053 206.822 203.707 202.752 200.786 197.916C197.913 193.079 195.518 188.913 195.518 188.674C195.518 188.386 195.949 188.051 196.476 187.86C198.056 187.381 201.456 183.119 202.462 180.389C203.755 176.894 203.707 171.004 202.366 167.987C199.206 160.9 194.608 159.415 176.268 159.367H167.266V163.438Z" fill="white"/>
<path d="M255.375 163.917V168.466H272.854H290.332V163.917V159.367H272.854H255.375V163.917Z" fill="white"/>
<path d="M299.431 183.31V207.253H316.67H333.909V202.704V198.155H321.219H308.529L308.433 178.857L308.433 159.32H304.016H299.431V183.31Z" fill="white"/>
<path d="M148.686 190.111L148.865 207.302L153.355 207.305L157.688 207.302V190.254V173.255H153.139H148.59L148.686 190.111Z" fill="white"/>
<path d="M255.375 183.311V187.621H272.854H290.332V183.311V179.002H272.854H255.375V183.311Z" fill="white"/>
<path d="M255.375 202.561V207.014H272.854H290.332V202.561V198.155H272.854H255.375V202.561Z" fill="white"/>
<path d="M210.839 163.303V167.373H221.757C231.43 167.373 232.867 167.517 234.639 168.331C237.56 169.624 238.709 171.683 238.47 175.179C238.278 178.387 237.272 180.015 234.495 181.452C232.819 182.362 231.67 182.457 221.757 182.601L210.839 182.745V194.956V207.119H215.389H219.938V198.739V190.359H225.397H230.904L235.357 198.739L239.81 207.119H244.743C247.424 207.119 249.627 206.975 249.627 206.831C249.627 206.688 247.281 202.617 244.359 197.781C241.486 192.944 239.092 188.778 239.092 188.539C239.092 188.252 239.523 187.916 240.05 187.725C241.63 187.246 245.03 182.984 246.036 180.255C247.328 176.759 247.281 170.869 245.94 167.852C242.779 160.765 238.182 159.281 219.842 159.233H210.839V163.303Z" fill="white"/>
<defs>
<clipPath id="clip0_1201_32">
<rect width="94" height="94" fill="white" transform="translate(120.286 13)"/>
</clipPath>
</defs>
</svg>
