<svg width="282" height="194" viewBox="0 0 282 194" fill="none" xmlns="http://www.w3.org/2000/svg">
<path d="M21.39 176.482C21.39 178.414 20.9147 180.1 19.964 181.542C19.0133 182.983 17.6333 184.102 15.824 184.9C14.0453 185.666 11.868 186.05 9.292 186.05C8.15733 186.05 7.038 185.973 5.934 185.82C4.86067 185.666 3.818 185.452 2.806 185.176C1.82467 184.869 0.889333 184.501 0 184.072V177.586C1.564 178.26 3.174 178.889 4.83 179.472C6.51667 180.024 8.188 180.3 9.844 180.3C10.9787 180.3 11.8833 180.146 12.558 179.84C13.2633 179.533 13.7693 179.119 14.076 178.598C14.4133 178.076 14.582 177.478 14.582 176.804C14.582 175.976 14.2907 175.27 13.708 174.688C13.156 174.105 12.4047 173.568 11.454 173.078C10.5033 172.556 9.41467 172.004 8.188 171.422C7.42133 171.054 6.59333 170.624 5.704 170.134C4.81467 169.612 3.956 168.984 3.128 168.248C2.33067 167.481 1.67133 166.561 1.15 165.488C0.628667 164.414 0.368 163.126 0.368 161.624C0.368 159.661 0.812667 157.99 1.702 156.61C2.622 155.199 3.91 154.126 5.566 153.39C7.25267 152.654 9.23067 152.286 11.5 152.286C13.2173 152.286 14.8427 152.485 16.376 152.884C17.94 153.282 19.5653 153.85 21.252 154.586L18.998 160.014C17.4953 159.4 16.146 158.925 14.95 158.588C13.754 158.25 12.5273 158.082 11.27 158.082C10.4113 158.082 9.67533 158.22 9.062 158.496C8.44867 158.772 7.97333 159.155 7.636 159.646C7.32933 160.136 7.176 160.719 7.176 161.394C7.176 162.16 7.406 162.82 7.866 163.372C8.326 163.893 9.016 164.399 9.936 164.89C10.856 165.38 12.006 165.963 13.386 166.638C15.0727 167.435 16.4987 168.263 17.664 169.122C18.86 169.98 19.78 170.992 20.424 172.158C21.068 173.323 21.39 174.764 21.39 176.482Z" fill="white"/>
<path d="M65.4479 169.122C65.4479 171.575 65.1566 173.814 64.5739 175.838C63.9913 177.862 63.1019 179.625 61.9059 181.128C60.7099 182.6 59.1919 183.75 57.3519 184.578L65.2639 193.41H56.3399L50.3139 186.05C50.2219 186.05 50.1299 186.05 50.0379 186.05C49.9766 186.05 49.8999 186.05 49.8079 186.05C47.1399 186.05 44.8093 185.651 42.8159 184.854C40.8533 184.026 39.2279 182.876 37.9399 181.404C36.6826 179.901 35.7319 178.107 35.0879 176.022C34.4746 173.936 34.1679 171.621 34.1679 169.076C34.1679 165.672 34.7199 162.712 35.8239 160.198C36.9586 157.683 38.6759 155.736 40.9759 154.356C43.3066 152.945 46.2659 152.24 49.8539 152.24C53.4113 152.24 56.3399 152.945 58.6399 154.356C60.9399 155.736 62.6419 157.698 63.7459 160.244C64.8806 162.758 65.4479 165.718 65.4479 169.122ZM41.4819 169.122C41.4819 171.422 41.7733 173.4 42.3559 175.056C42.9386 176.712 43.8433 177.984 45.0699 178.874C46.2966 179.763 47.8759 180.208 49.8079 180.208C51.8013 180.208 53.3959 179.763 54.5919 178.874C55.8186 177.984 56.7079 176.712 57.2599 175.056C57.8426 173.4 58.1339 171.422 58.1339 169.122C58.1339 165.656 57.4899 162.942 56.2019 160.98C54.9139 159.017 52.7979 158.036 49.8539 158.036C47.8913 158.036 46.2966 158.48 45.0699 159.37C43.8433 160.259 42.9386 161.532 42.3559 163.188C41.7733 164.844 41.4819 166.822 41.4819 169.122Z" fill="white"/>
<path d="M107.257 173.998C107.257 176.267 106.751 178.322 105.739 180.162C104.758 181.971 103.255 183.412 101.231 184.486C99.2379 185.528 96.7079 186.05 93.6413 186.05C89.2866 186.05 85.9746 184.946 83.7053 182.738C81.4359 180.499 80.3013 177.555 80.3013 173.906V152.746H87.2473V172.848C87.2473 175.546 87.7993 177.448 88.9033 178.552C90.0073 179.656 91.6479 180.208 93.8253 180.208C95.3586 180.208 96.6006 179.947 97.5513 179.426C98.5019 178.904 99.1919 178.092 99.6213 176.988C100.081 175.884 100.311 174.488 100.311 172.802V152.746H107.257V173.998Z" fill="white"/>
<path d="M135.863 185.59H120.913V181.634L124.915 179.794V158.542L120.913 156.702V152.746H135.863V156.702L131.861 158.542V179.794L135.863 181.634V185.59Z" fill="white"/>
<path d="M159.308 152.746C162.282 152.746 164.736 153.114 166.668 153.85C168.6 154.555 170.041 155.644 170.992 157.116C171.942 158.557 172.418 160.382 172.418 162.59C172.418 164.092 172.126 165.411 171.544 166.546C170.992 167.65 170.24 168.6 169.29 169.398C168.37 170.164 167.373 170.793 166.3 171.284L175.96 185.59H168.232L160.412 172.986H156.686V185.59H149.74V152.746H159.308ZM158.802 158.45H156.686V167.328H158.94C160.473 167.328 161.715 167.159 162.666 166.822C163.616 166.484 164.306 165.978 164.736 165.304C165.165 164.598 165.38 163.755 165.38 162.774C165.38 161.731 165.134 160.903 164.644 160.29C164.184 159.646 163.463 159.186 162.482 158.91C161.531 158.603 160.304 158.45 158.802 158.45Z" fill="white"/>
<path d="M197.955 152.746C200.93 152.746 203.383 153.114 205.315 153.85C207.247 154.555 208.688 155.644 209.639 157.116C210.59 158.557 211.065 160.382 211.065 162.59C211.065 164.092 210.774 165.411 210.191 166.546C209.639 167.65 208.888 168.6 207.937 169.398C207.017 170.164 206.02 170.793 204.947 171.284L214.607 185.59H206.879L199.059 172.986H195.333V185.59H188.387V152.746H197.955ZM197.449 158.45H195.333V167.328H197.587C199.12 167.328 200.362 167.159 201.313 166.822C202.264 166.484 202.954 165.978 203.383 165.304C203.812 164.598 204.027 163.755 204.027 162.774C204.027 161.731 203.782 160.903 203.291 160.29C202.831 159.646 202.11 159.186 201.129 158.91C200.178 158.603 198.952 158.45 197.449 158.45Z" fill="white"/>
<path d="M245.94 185.59H227.034V152.746H245.94V158.45H233.98V165.672H245.112V171.376H233.98V179.84H245.94V185.59Z" fill="white"/>
<path d="M261.054 185.59V152.746H268V179.84H281.34V185.59H261.054Z" fill="white"/>
<rect x="80.6699" y="0.589844" width="120" height="120" rx="20" fill="white"/>
<g clip-path="url(#clip0_731_31)">
<path d="M127.916 13.9284C135.023 12.9978 141.516 13.9073 147.418 17.6724C153.742 21.7124 157.804 27.4023 159.432 34.7421C161.992 52.1503 150.464 62.5995 145.535 66.703C145.26 66.9356 144.732 67.5491 144.689 67.7183C145.007 67.7394 152.135 67.1472 155.308 66.4068C161.547 64.9685 165.651 60.9496 167.872 54.9847C168.189 54.1175 168.443 53.2502 168.824 52.4041C169.289 51.3465 170.029 51.1562 170.77 51.9811C172.229 53.5252 173.372 56.1058 173.625 56.8672C174.133 58.4325 175.275 59.0882 176.756 59.5959C180.415 60.865 183.63 62.8956 185.83 66.1742C187.184 68.1625 188.051 70.3411 187.48 72.8371C187.226 73.937 186.676 74.6773 185.534 75.1427C182.107 76.8771 177.687 76.4964 173.9 74.6139C172.377 73.8524 170.96 72.8582 169.247 71.8429C171.531 75.7349 172.272 79.6269 169.818 83.8573C171.975 82.8844 173.773 81.9537 175.656 81.2556C177.052 80.7268 178.533 80.3249 180.013 80.1134C181.24 79.9442 182.277 80.748 182.594 81.7421C182.848 82.5459 182.361 83.8362 181.494 84.4285C181.113 84.6823 180.542 84.915 180.14 84.8092C178.85 84.5342 177.898 85.063 176.925 85.7399C175.317 86.8609 173.752 88.1089 172.039 89.0396C167.534 91.4721 162.774 89.9069 160.448 85.338C159.073 82.6517 158.354 79.8173 158.396 76.7925C158.396 76.2003 158.396 75.608 158.227 74.9735C156.365 76.6868 156.534 78.9289 156.831 81.3191C154.885 80.5999 153.087 80.5153 151.035 81.5518C151.818 81.9113 152.389 82.1229 152.917 82.419C154.271 83.1593 155.688 83.8362 156.915 84.7457C160.215 87.1782 161.209 90.6683 159.58 94.4546C158.861 96.1044 157.74 97.6062 156.767 99.1503C156.408 99.7426 155.9 100.229 155.329 100.969C156.111 101.075 156.682 101.139 157.254 101.202C160.173 101.519 162.986 102.133 165.186 104.248C165.82 104.861 166.222 105.729 166.645 106.532C166.962 107.146 166.709 107.548 165.968 107.527C165.757 107.527 165.545 107.527 165.334 107.527C152.494 107.527 139.676 107.484 126.837 107.548C121.824 107.569 117.234 106.131 112.961 103.698C106.742 100.187 101.687 95.3852 97.9431 89.2934C93.5223 82.1017 92.7396 74.3389 94.6222 66.1953C95.9971 60.315 99.4026 55.8308 103.739 51.8119C109.746 46.3123 116.282 41.5108 123.072 37.0054C125.948 35.1017 128.783 33.1134 131.385 30.8501C134.05 28.5446 135.678 25.5833 134.896 21.8605C134.367 19.3645 132.759 17.5455 130.813 16.0014C129.967 15.3245 129.058 14.7322 127.916 13.9284ZM177.56 68.3951C177.877 68.374 178.194 67.951 178.215 67.6125C178.258 66.2588 176.544 64.8839 175.169 65.0531C174.493 65.1377 174.281 65.4762 174.387 66.1107C174.598 67.401 175.783 68.3528 177.56 68.3951Z" fill="#3C26E6"/>
</g>
<defs>
<clipPath id="clip0_731_31">
<rect width="94" height="94" fill="white" transform="translate(93.6699 13.5898)"/>
</clipPath>
</defs>
</svg>
