<svg width="13" height="15" viewBox="0 0 13 15" fill="none" xmlns="http://www.w3.org/2000/svg">
<path fill-rule="evenodd" clip-rule="evenodd" d="M10.4585 5.92063V13.0417H2.54183V1.95833H7.28391V3.92958C7.28391 4.24453 7.40902 4.54657 7.63172 4.76927C7.85442 4.99197 8.15647 5.11708 8.47141 5.11708H12.0339V4.70383C12.0339 4.46871 11.9294 4.24625 11.7497 4.09583L7.73279 0.742333C7.44779 0.504833 7.08916 0.375 6.71787 0.375H2.54183C2.1219 0.375 1.71918 0.541815 1.42224 0.838748C1.12531 1.13568 0.958496 1.53841 0.958496 1.95833V13.0417C0.958496 13.4616 1.12531 13.8643 1.42224 14.1613C1.71918 14.4582 2.1219 14.625 2.54183 14.625H10.4585C10.8784 14.625 11.2811 14.4582 11.5781 14.1613C11.875 13.8643 12.0418 13.4616 12.0418 13.0417V5.92063H10.4585Z" fill="black"/>
</svg>
