<svg width="24" height="22" viewBox="0 0 24 22" fill="none" xmlns="http://www.w3.org/2000/svg">
<g opacity="0.5" clip-path="url(#clip0_5_4278)">
<path d="M0.835848 6.64963C1.29757 6.64963 1.6717 6.30658 1.6717 5.88343V2.61658L7.05512 7.55036C7.21839 7.69993 7.43225 7.77471 7.64612 7.77471C7.8601 7.77471 8.07407 7.69993 8.23723 7.55026C8.56366 7.25104 8.56366 6.76588 8.23712 6.46676L2.85348 1.53288H6.41809C6.8797 1.53288 7.25394 1.18983 7.25394 0.766683C7.25394 0.343539 6.87981 0.000488281 6.41809 0.000488281H0.835848C0.374126 0.000488281 0 0.343539 0 0.766683V5.88353C0 6.30658 0.374126 6.64963 0.835848 6.64963Z" fill="black"/>
<path d="M23.1642 15.3507C22.7025 15.3507 22.3284 15.6938 22.3284 16.1169V19.3839L16.7792 14.2972C16.4527 13.9979 15.9235 13.9979 15.5971 14.2972C15.2707 14.5964 15.2707 15.0815 15.5971 15.3807L21.1461 20.4673H17.5824C17.1207 20.4673 16.7466 20.8103 16.7466 21.2335C16.7466 21.6566 17.1207 21.9997 17.5824 21.9997H23.1643C23.6261 21.9997 24.0002 21.6566 24.0002 21.2335V16.1169C24.0001 15.6938 23.6258 15.3507 23.1642 15.3507Z" fill="black"/>
<path d="M7.22077 14.2972L1.67219 19.3838V16.1169C1.67219 15.6938 1.29806 15.3508 0.836337 15.3508C0.374614 15.3508 0.000488281 15.6938 0.000488281 16.1169V21.2337C0.000488281 21.6568 0.374614 21.9999 0.836337 21.9999H6.41802C6.87963 21.9999 7.25387 21.6568 7.25387 21.2337C7.25387 20.8106 6.87975 20.4675 6.41802 20.4675H2.85419L8.40289 15.3807C8.72931 15.0815 8.72931 14.5963 8.40277 14.2971C8.07657 13.998 7.54731 13.998 7.22077 14.2972Z" fill="black"/>
<path d="M23.1642 0.000488281H17.5823C17.1206 0.000488281 16.7465 0.343539 16.7465 0.766683C16.7465 1.18983 17.1206 1.53288 17.5823 1.53288H21.1462L15.7636 6.46727C15.4372 6.7665 15.4372 7.25165 15.7637 7.55088C15.9269 7.70044 16.1409 7.77522 16.3547 7.77522C16.5686 7.77522 16.7826 7.70033 16.9458 7.55077L22.3285 2.61638V5.88343C22.3285 6.30658 22.7026 6.64963 23.1643 6.64963C23.626 6.64963 24.0002 6.30658 24.0002 5.88343V0.766683C24.0001 0.343437 23.6258 0.000488281 23.1642 0.000488281Z" fill="black"/>
</g>
<defs>
<clipPath id="clip0_5_4278">
<rect width="24" height="22" fill="white"/>
</clipPath>
</defs>
</svg>
