<svg width="20" height="20" viewBox="0 0 20 20" fill="none" xmlns="http://www.w3.org/2000/svg">
<path d="M12.5 10C12.5 10.663 12.2366 11.2989 11.7678 11.7678C11.2989 12.2366 10.663 12.5 10 12.5C9.33696 12.5 8.70107 12.2366 8.23223 11.7678C7.76339 11.2989 7.5 10.663 7.5 10C7.5 9.33696 7.76339 8.70107 8.23223 8.23223C8.70107 7.76339 9.33696 7.5 10 7.5C10.663 7.5 11.2989 7.76339 11.7678 8.23223C12.2366 8.70107 12.5 9.33696 12.5 10Z" stroke="#919193" stroke-opacity="0.501961" stroke-linecap="round" stroke-linejoin="round"/>
<path d="M2.04833 10C3.11 6.61917 6.26917 4.16667 10 4.16667C13.7317 4.16667 16.89 6.61917 17.9517 10C16.89 13.3808 13.7317 15.8333 10 15.8333C6.26917 15.8333 3.11 13.3808 2.04833 10Z" stroke="#919193" stroke-opacity="0.501961" stroke-linecap="round" stroke-linejoin="round"/>
</svg>
