<svg width="16" height="16" viewBox="0 0 16 16" fill="none" xmlns="http://www.w3.org/2000/svg">
<g clip-path="url(#clip0_5_4102)">
<path d="M8.00005 2C6.87682 2 5.80061 2.25458 4.80151 2.68042L5.56319 3.44209C6.335 3.16249 7.1532 3 8.00005 3C11.0929 3 13.8727 5.00246 14.9699 8.00006C14.5518 9.1424 13.8869 10.1371 13.0558 10.9347L13.759 11.6379C14.7349 10.697 15.5092 9.51981 15.9733 8.16168C16.009 8.05671 16.009 7.94342 15.9733 7.83845C14.7799 4.34622 11.5758 2 8.00005 2Z" fill="#919193" fill-opacity="0.5"/>
<path d="M9.98642 7.86534L10.8882 8.76715C10.9538 8.52082 11.0001 8.26685 11.0001 8.00005C11.0001 6.34574 9.65435 5 8.00001 5C7.73321 5 7.47924 5.04622 7.23291 5.11183L8.13472 6.01364C9.12862 6.08126 9.9188 6.87144 9.98642 7.86534Z" fill="#919193" fill-opacity="0.5"/>
<path d="M0.999909 1.70707L3.0274 3.73455C1.68459 4.75008 0.606588 6.14168 0.0267382 7.8385C-0.00891273 7.94348 -0.00891273 8.05676 0.0267382 8.16174C1.22011 11.654 4.42425 14.0002 8 14.0002C9.48642 14.0002 10.8903 13.5634 12.1288 12.836L14.2931 15.0002L15.0001 14.2932L1.70692 1L0.99988 1.70704L0.999909 1.70707ZM8.00003 13.0002C4.90723 13.0002 2.12738 10.9978 1.03019 8.00015C1.57134 6.52153 2.54381 5.31884 3.74111 4.44827L5.55992 6.26707C5.21038 6.75762 4.99998 7.35326 4.99998 8.00012C4.99998 9.65443 6.34569 11.0002 8.00003 11.0002C8.64688 11.0002 9.24253 10.7898 9.73308 10.4402L11.397 12.1042C10.3643 12.6638 9.21405 13.0002 8.00003 13.0002ZM6.28333 6.99051L9.00969 9.71688C8.71221 9.89255 8.36986 10.0002 8.00003 10.0002C6.89697 10.0002 6.00001 9.10321 6.00001 8.00018C6.00001 7.63034 6.10766 7.288 6.28333 6.99051Z" fill="#919193" fill-opacity="0.5"/>
</g>
<defs>
<clipPath id="clip0_5_4102">
<rect width="16" height="16" fill="white"/>
</clipPath>
</defs>
</svg>
