<?xml version="1.0" standalone="no"?>
<!DOCTYPE svg PUBLIC "-//W3C//DTD SVG 20010904//EN"
 "http://www.w3.org/TR/2001/REC-SVG-20010904/DTD/svg10.dtd">
<svg version="1.0" xmlns="http://www.w3.org/2000/svg"
 width="64.000000pt" height="64.000000pt" viewBox="0 0 64.000000 64.000000"
 preserveAspectRatio="xMidYMid meet">

<g transform="translate(0.000000,64.000000) scale(0.100000,-0.100000)"
fill="#000000" stroke="none">
<path d="M75 557 c-3 -7 -4 -96 -3 -197 l3 -185 100 -52 c55 -29 103 -52 108
-53 4 0 7 22 7 49 l0 50 53 3 52 3 3 58 c2 35 -1 57 -8 57 -5 0 -10 -22 -10
-50 l0 -50 -45 0 -45 0 0 138 0 138 -82 41 -83 42 128 0 127 1 0 -50 c0 -28 5
-50 10 -50 7 0 10 22 8 58 l-3 57 -158 3 c-122 2 -159 0 -162 -11z m195 -279
c0 -98 -2 -178 -5 -178 -3 0 -43 19 -90 42 l-85 42 0 177 0 177 90 -41 90 -42
0 -177z"/>
<path d="M460 463 c0 -4 17 -24 37 -45 l37 -38 -102 0 c-61 0 -102 -4 -102
-10 0 -6 41 -10 102 -10 l102 0 -39 -40 c-21 -22 -35 -43 -31 -47 3 -4 30 16
59 45 l52 52 -50 50 c-46 47 -65 59 -65 43z"/>
</g>
</svg>
