<svg version="1.1" xmlns="http://www.w3.org/2000/svg" xmlns:xlink="http://www.w3.org/1999/xlink" width="64.000000pt" height="64.000000pt" viewBox="0,0,256,256"><g fill="#282828" fill-rule="nonzero" stroke="none" stroke-width="1" stroke-linecap="butt" stroke-linejoin="miter" stroke-miterlimit="10" stroke-dasharray="" stroke-dashoffset="0" font-family="none" font-weight="none" font-size="none" text-anchor="none" style="mix-blend-mode: normal"><g transform="translate(0,0)"><g><g transform="translate(-1.325,-0.26281) scale(4,4)"><g transform="translate(0,64) scale(0.1,-0.1)"><path d="M75,557c-3,-7 -4,-96 -3,-197l3,-185l100,-52c55,-29 103,-52 108,-53c4,0 7,22 7,49v50l53,3l52,3l3,58c2,35 -1,57 -8,57c-5,0 -10,-22 -10,-50v-50h-45h-45v138v138l-82,41l-83,42h128l127,1v-50c0,-28 5,-50 10,-50c7,0 10,22 8,58l-3,57l-158,3c-122,2 -159,0 -162,-11zM270,278c0,-98 -2,-178 -5,-178c-3,0 -43,19 -90,42l-85,42v177v177l90,-41l90,-42z"></path><path d="M460,463c0,-4 17,-24 37,-45l37,-38h-102c-61,0 -102,-4 -102,-10c0,-6 41,-10 102,-10h102l-39,-40c-21,-22 -35,-43 -31,-47c3,-4 30,16 59,45l52,52l-50,50c-46,47 -65,59 -65,43z"></path></g></g></g></g></g></svg>