<svg width="53" height="52" viewBox="0 0 53 52" fill="none" xmlns="http://www.w3.org/2000/svg">
<rect x="0.669922" width="52" height="52" rx="8.66667" fill="white"/>
<path d="M21.1431 5.77982C24.2229 5.37652 27.0368 5.77065 29.5941 7.40218C32.3347 9.15288 34.0946 11.6185 34.8003 14.7991C35.9094 22.3426 30.914 26.8706 28.7783 28.6488C28.6592 28.7496 28.43 29.0154 28.4117 29.0887C28.5492 29.0979 31.6381 28.8413 33.013 28.5205C35.7169 27.8972 37.4951 26.1557 38.4575 23.5709C38.595 23.1951 38.705 22.8193 38.87 22.4526C39.0716 21.9943 39.3925 21.9118 39.7133 22.2693C40.3457 22.9384 40.8407 24.0567 40.9507 24.3866C41.1706 25.0649 41.6656 25.3491 42.3072 25.569C43.8929 26.119 45.2861 26.9989 46.2394 28.4196C46.826 29.2812 47.2018 30.2253 46.9543 31.3069C46.8443 31.7835 46.606 32.1043 46.1111 32.306C44.6262 33.0576 42.7105 32.8926 41.0698 32.0768C40.4099 31.7469 39.7958 31.3161 39.0533 30.8761C40.0432 32.5626 40.364 34.2492 39.3008 36.0823C40.2357 35.6607 41.0148 35.2574 41.8306 34.9549C42.4355 34.7258 43.0772 34.5516 43.7188 34.46C44.2504 34.3866 44.6995 34.735 44.837 35.1658C44.947 35.5141 44.7362 36.0732 44.3604 36.3298C44.1954 36.4398 43.9479 36.5406 43.7738 36.4948C43.2146 36.3757 42.8022 36.6048 42.3805 36.8981C41.6839 37.3839 41.0057 37.9247 40.2632 38.328C38.3109 39.3821 36.2485 38.7038 35.2403 36.724C34.6445 35.5599 34.3329 34.3316 34.3512 33.0209C34.3512 32.7643 34.3512 32.5076 34.2779 32.2327C33.4713 32.9751 33.5446 33.9467 33.6729 34.9824C32.8297 34.6708 32.0506 34.6341 31.1615 35.0833C31.5006 35.2391 31.7481 35.3307 31.9772 35.4591C32.5638 35.7799 33.178 36.0732 33.7096 36.4673C35.1395 37.5214 35.5703 39.0338 34.8645 40.6745C34.5529 41.3894 34.0671 42.0402 33.6454 42.7093C33.4896 42.9659 33.2696 43.1768 33.0221 43.4976C33.3613 43.5434 33.6088 43.5709 33.8562 43.5984C35.1211 43.7359 36.3402 44.0017 37.2935 44.9183C37.5684 45.1841 37.7426 45.5599 37.9259 45.9082C38.0634 46.174 37.9534 46.3482 37.6326 46.339C37.5409 46.339 37.4493 46.339 37.3576 46.339C31.7939 46.339 26.2394 46.3207 20.6757 46.3482C18.5033 46.3573 16.5143 45.7341 14.6628 44.68C11.968 43.1584 9.77738 41.0778 8.15501 38.438C6.23934 35.3216 5.9002 31.9577 6.71596 28.4288C7.31175 25.8807 8.78746 23.9375 10.6665 22.196C13.2696 19.8128 16.1019 17.7322 19.0441 15.7798C20.2907 14.9549 21.5189 14.0933 22.6463 13.1126C23.8012 12.1135 24.507 10.8302 24.1679 9.21704C23.9387 8.13546 23.2421 7.34719 22.3988 6.67808C22.0322 6.38477 21.6381 6.12812 21.1431 5.77982ZM42.6555 29.3821C42.793 29.3729 42.9305 29.1896 42.9397 29.0429C42.958 28.4563 42.2156 27.8605 41.6198 27.9338C41.3265 27.9705 41.2348 28.1172 41.2806 28.3921C41.3723 28.9513 41.8856 29.3637 42.6555 29.3821Z" fill="#503AF9"/>
</svg>
