<svg width="24" height="24" viewBox="0 0 24 24" fill="none" xmlns="http://www.w3.org/2000/svg">
<g id="postgresql" clip-path="url(#clip0_170_60)">
<path id="Vector" d="M21.953 14.917L21.9571 14.913L21.951 14.917H21.952H21.953Z" fill="#282828"/>
<path id="Vector_2" d="M18.991 14.7271L18.993 14.7291L18.99 14.7311C18.845 14.7841 18.725 14.8061 18.624 14.8511C18.521 14.8921 18.438 14.9671 18.389 15.0631L18.388 15.0651C18.326 15.1801 18.272 15.3841 18.288 15.7311C18.329 15.7611 18.379 15.7841 18.43 15.8001L18.434 15.8011C18.603 15.8531 18.886 15.8871 19.202 15.8821C19.832 15.8751 20.608 15.7261 21.02 15.5321C21.375 15.3631 21.679 15.1591 21.95 14.9171C20.574 15.2051 19.797 15.1281 19.32 14.9291C19.196 14.8751 19.087 14.8081 18.991 14.7271Z" fill="#282828"/>
<path id="Vector_3" d="M17.58 4.151L17.586 4.16L17.593 4.168L17.58 4.151Z" fill="#282828"/>
<path id="Vector_4" d="M12.317 19.299C12.316 19.274 12.317 19.248 12.316 19.223C12.316 19.213 12.315 19.206 12.315 19.196L12.317 19.299ZM11.262 14.886C11.204 14.857 11.136 14.836 11.063 14.826H11.06V14.824H11.039C10.987 14.829 10.911 14.847 10.763 15.012C10.419 15.402 10.299 15.647 10.015 15.876C9.73101 16.104 9.36301 16.226 8.62701 16.379C8.39401 16.427 8.26001 16.48 8.17201 16.523C8.20101 16.547 8.19801 16.553 8.24101 16.576C8.34901 16.636 8.48701 16.689 8.59901 16.718C8.91501 16.798 9.43501 16.891 9.97701 16.798C10.519 16.704 11.083 16.441 11.564 15.758C11.647 15.64 11.656 15.466 11.588 15.279C11.52 15.092 11.368 14.931 11.262 14.886ZM15.3 1.50195L15.243 1.51295C15.262 1.50895 15.283 1.50695 15.302 1.50295C15.301 1.50295 15.301 1.50195 15.3 1.50195ZM18.082 6.89995C17.411 6.90895 17.035 7.08395 16.837 7.31295C16.557 7.63795 16.531 8.20795 16.705 8.90995C16.878 9.61295 17.235 10.399 17.571 11.052C17.739 11.379 17.902 11.673 18.033 11.912C18.165 12.152 18.262 12.322 18.321 12.467C18.375 12.601 18.436 12.719 18.497 12.829C18.757 12.274 18.803 11.729 18.777 11.161C18.743 10.458 18.581 9.73895 18.605 9.01095C18.632 8.15995 18.798 7.60595 18.812 6.94795C18.593 6.91795 18.339 6.89995 18.082 6.89995ZM18.206 7.40595L18.205 7.41395C18.205 7.41695 18.205 7.41995 18.205 7.42395C18.205 7.46995 18.192 7.51395 18.169 7.54995L18.17 7.54895C18.139 7.60595 18.103 7.65595 18.061 7.69895C17.963 7.80795 17.832 7.88395 17.684 7.90995L17.68 7.91095C17.659 7.91395 17.635 7.91495 17.61 7.91495C17.484 7.91495 17.368 7.87495 17.273 7.80695L17.275 7.80795C17.226 7.77395 17.183 7.73495 17.148 7.69095L17.147 7.68995C17.116 7.65595 17.094 7.61195 17.085 7.56495V7.56295C17.085 7.55795 17.084 7.55295 17.084 7.54795C17.084 7.50495 17.1 7.46495 17.127 7.43495C17.159 7.39795 17.197 7.36795 17.241 7.34595L17.243 7.34495C17.338 7.29095 17.466 7.25095 17.611 7.22895C17.665 7.22095 17.719 7.21695 17.769 7.21595V7.21895H17.818C17.883 7.22095 17.943 7.22795 17.996 7.24095C18.049 7.25295 18.095 7.27095 18.132 7.29595C18.169 7.32095 18.197 7.35895 18.206 7.40595ZM7.07701 11.307C7.07701 11.127 7.09101 10.951 7.11701 10.778L7.11501 10.797C7.21701 10.058 7.23101 9.36695 7.21901 8.82095C7.20701 8.28895 7.16901 7.93495 7.16901 7.71395C7.16901 7.71095 7.16901 7.70795 7.16901 7.70495C7.16901 7.70195 7.16901 7.69795 7.16901 7.69495V7.68995L7.16801 7.68395C7.16801 7.68195 7.16801 7.67995 7.16801 7.67795C7.16801 6.49395 7.37601 5.35895 7.75301 4.30595C8.03001 3.56195 8.44201 2.80695 9.05901 2.19495C8.45201 1.99295 7.37601 1.68495 6.21001 1.62695C6.09801 1.62095 5.96701 1.61695 5.83601 1.61695L5.83501 1.61795C5.71001 1.61795 5.58401 1.62195 5.46001 1.62895C4.46201 1.68695 3.51801 1.97995 2.84401 2.70395C2.16801 3.42795 1.72301 4.61495 1.82001 6.57995C1.83901 6.95195 1.99901 7.99395 2.27301 9.23195C2.54801 10.47 2.93501 11.927 3.40101 13.214C3.86801 14.501 4.43401 15.621 4.97201 16.151C5.24301 16.416 5.47801 16.523 5.69101 16.514C5.90501 16.504 6.16301 16.379 6.47801 15.996C7.09701 15.242 7.68201 14.575 8.28601 13.927L8.26601 13.948C7.53601 13.303 7.07701 12.36 7.07701 11.307Z" fill="#282828"/>
<path id="Vector_5" d="M12.396 1.56804V1.56604C11.228 1.56904 10.391 1.92604 9.75499 2.46104C9.09999 3.01404 8.66099 3.77104 8.37199 4.54604C8.02899 5.46604 7.91199 6.35604 7.86499 6.96004L7.87799 6.95204C8.23099 6.75204 8.69399 6.55204 9.18999 6.43604C9.68599 6.32004 10.22 6.28504 10.704 6.47504C11.188 6.66504 11.588 7.11204 11.733 7.79004C12.428 11.047 11.517 12.258 11.181 13.172C11.074 13.435 10.963 13.773 10.87 14.118L10.854 14.185C10.896 14.175 10.939 14.163 10.981 14.159C11.218 14.139 11.404 14.219 11.514 14.267C11.852 14.409 12.084 14.707 12.209 15.047C12.242 15.136 12.265 15.232 12.279 15.331C12.292 15.365 12.299 15.405 12.299 15.446C12.299 15.45 12.299 15.454 12.299 15.458C12.283 15.958 12.273 16.545 12.273 17.135C12.273 17.834 12.287 18.53 12.313 19.223C12.336 19.749 12.369 20.215 12.41 20.582C12.453 20.956 12.513 21.239 12.551 21.335C12.677 21.655 12.862 22.074 13.196 22.359C13.53 22.643 14.009 22.833 14.884 22.643C15.643 22.478 16.111 22.249 16.424 21.92C16.737 21.591 16.923 21.133 17.042 20.432C17.221 19.382 17.58 16.337 17.624 15.764C17.604 15.332 17.667 15 17.804 14.747C17.944 14.487 18.162 14.328 18.349 14.242C18.443 14.199 18.531 14.17 18.603 14.149C18.515 14.022 18.436 13.916 18.354 13.813L18.363 13.824C18.104 13.508 17.883 13.145 17.716 12.754L17.705 12.725C17.604 12.516 17.519 12.358 17.43 12.203L17.451 12.242C17.32 12.002 17.154 11.702 16.98 11.365C16.632 10.69 16.254 9.87204 16.057 9.07504C15.861 8.27904 15.833 7.45504 16.335 6.87404C16.779 6.35804 17.56 6.14404 18.731 6.26404C18.697 6.15904 18.676 6.07204 18.617 5.93204C18.332 5.26204 17.989 4.68404 17.582 4.16004C16.589 2.87804 14.984 1.60904 12.506 1.56804H12.396ZM11.622 16.666C11.622 16.678 11.622 16.689 11.622 16.701V16.666Z" fill="#282828"/>
<path id="Vector_6" d="M7.85095 7.76999L7.85295 7.76899L7.85595 7.76599L7.85095 7.76999Z" fill="#282828"/>
<path id="Vector_7" d="M14.231 0.421053C14.248 0.416053 14.266 0.414053 14.282 0.410053L14.302 0.404053L14.231 0.421053Z" fill="#282828"/>
<path id="Vector_8" d="M9.32104 7.09299L9.33105 7.09199L9.33904 7.08899L9.32104 7.09299Z" fill="#282828"/>
<path id="Vector_9" d="M10.56 12.937C10.961 11.843 11.75 11.045 11.086 7.93102C10.977 7.42102 10.762 7.21501 10.466 7.09901C10.322 7.04601 10.155 7.01501 9.98001 7.01501C9.96901 7.01501 9.95701 7.01501 9.94601 7.01501H9.94801C9.73501 7.01701 9.52901 7.04401 9.33101 7.09201C8.91101 7.19801 8.54101 7.34801 8.19701 7.54001C8.06801 7.61101 7.95701 7.68501 7.85301 7.76801L7.83401 7.78601C7.84001 7.93201 7.86801 8.28601 7.88001 8.80701C7.89201 9.37701 7.87801 10.104 7.76901 10.891C7.53301 12.601 8.75901 14.017 10.199 14.019C10.284 13.668 10.422 13.312 10.56 12.937ZM9.70901 7.96801C9.66201 7.92001 9.62401 7.86601 9.59301 7.80701L9.59101 7.80301C9.56501 7.76101 9.55001 7.71001 9.55001 7.65501C9.55001 7.64502 9.55101 7.63501 9.55201 7.62501C9.56701 7.51701 9.65501 7.46202 9.74001 7.43102C9.81901 7.40502 9.90701 7.39001 10.001 7.39001C10.015 7.39001 10.029 7.39001 10.045 7.39101L10.044 7.38701C10.096 7.38701 10.152 7.39201 10.208 7.40001C10.359 7.42101 10.494 7.46201 10.596 7.52201C10.647 7.55001 10.691 7.58501 10.726 7.62701L10.727 7.62801C10.761 7.66701 10.781 7.71801 10.781 7.77501C10.781 7.78301 10.781 7.79101 10.78 7.79901C10.77 7.85901 10.743 7.91001 10.706 7.95201C10.665 8.00201 10.619 8.04502 10.567 8.08102L10.565 8.08201C10.464 8.15601 10.337 8.20001 10.2 8.20001C10.173 8.20001 10.146 8.19801 10.12 8.19501H10.123C9.95701 8.16701 9.81501 8.08501 9.70901 7.96801Z" fill="#282828"/>
<path id="Vector_10" d="M8.177 7.54996C8.184 7.54596 8.191 7.54396 8.197 7.53996C8.198 7.53996 8.199 7.53896 8.2 7.53796L8.177 7.54996ZM18.115 3.75196C18.548 4.30696 18.923 4.93896 19.212 5.61696L19.233 5.67196C19.342 5.93596 19.415 6.15896 19.456 6.33196C19.477 6.41896 19.491 6.49196 19.496 6.56796C19.498 6.60596 19.5 6.64496 19.484 6.71196C19.484 6.71496 19.479 6.72196 19.478 6.72496C19.508 7.60096 19.293 8.19496 19.268 9.03096C19.248 9.63696 19.401 10.349 19.439 11.126C19.475 11.856 19.388 12.658 18.919 13.445C18.959 13.493 18.994 13.541 19.032 13.589C20.271 11.614 21.164 9.42896 21.64 7.56596C21.895 6.56296 22.03 5.65396 22.042 4.93396C22.052 4.21396 21.919 3.69196 21.751 3.47396C20.425 1.75796 18.632 1.32096 17.128 1.30896L16.984 1.30996C16.404 1.31896 15.844 1.38596 15.303 1.50296C16.531 2.05496 17.461 2.90496 18.115 3.75196Z" fill="#282828"/>
<path id="Vector_11" d="M12.561 0.258H12.551C11.387 0.238 10.388 0.524 9.58103 1C8.78703 0.721 7.14003 0.24 5.40303 0.336C4.19403 0.403 2.87403 0.775 1.89603 1.82C0.921028 2.865 0.406028 4.482 0.514028 6.682C0.544028 7.289 0.715028 8.279 0.998028 9.561C1.28203 10.843 1.68003 12.344 2.17703 13.713C2.67403 15.083 3.21803 16.313 4.06903 17.149C4.49403 17.568 5.07903 17.92 5.76803 17.891C6.25203 17.871 6.68903 17.656 7.06703 17.339C7.25103 17.584 7.44703 17.691 7.62603 17.79C7.85103 17.915 8.07003 18 8.29703 18.056C8.70503 18.159 9.40303 18.297 10.221 18.156C10.5 18.109 10.793 18.017 11.085 17.886C11.096 18.216 11.109 18.539 11.121 18.866C11.162 19.902 11.187 20.859 11.494 21.698C11.543 21.835 11.679 22.541 12.212 23.164C12.745 23.788 13.791 24.177 14.981 23.919C15.821 23.737 16.888 23.409 17.598 22.387C18.299 21.377 18.615 19.928 18.678 17.578C18.694 17.451 18.713 17.343 18.732 17.242L18.899 17.257H18.919C19.815 17.298 20.787 17.169 21.599 16.787C22.318 16.45 22.862 16.109 23.259 15.504C23.358 15.354 23.466 15.173 23.496 14.861C23.526 14.549 23.349 14.061 23.055 13.836C22.467 13.384 22.098 13.556 21.702 13.639C21.349 13.722 20.941 13.774 20.523 13.785H20.515C21.657 11.838 22.476 9.77 22.943 7.94C23.22 6.86 23.375 5.864 23.387 4.993C23.4 4.122 23.33 3.351 22.814 2.684C21.203 0.6 18.938 0.024 17.185 0.004C17.131 0.003 17.076 0.002 17.022 0.003V0C16.068 0.008 15.15 0.152 14.281 0.409L14.24 0.423C13.738 0.329 13.155 0.269 12.561 0.258ZM14.93 0.895C15.542 0.744 16.246 0.653 16.97 0.644H16.976L16.977 0.64C18.635 0.624 20.752 1.095 22.273 3.062C22.615 3.504 22.717 4.15 22.705 4.946C22.692 5.741 22.547 6.693 22.281 7.736C21.765 9.756 20.791 12.111 19.419 14.224C19.464 14.257 19.516 14.286 19.57 14.308L19.575 14.31C19.861 14.43 20.514 14.533 21.817 14.262C22.145 14.192 22.385 14.145 22.634 14.337C22.746 14.433 22.816 14.575 22.816 14.734C22.816 14.744 22.816 14.754 22.815 14.764V14.763C22.8 14.89 22.755 15.004 22.686 15.099C22.434 15.482 21.937 15.845 21.301 16.144C20.737 16.41 19.928 16.549 19.211 16.557C18.851 16.561 18.52 16.533 18.238 16.444L18.22 16.437C18.111 17.497 17.861 19.59 17.698 20.545C17.568 21.315 17.34 21.927 16.904 22.385C16.469 22.843 15.854 23.119 15.026 23.299C14.001 23.522 13.253 23.282 12.771 22.871C12.29 22.461 12.07 21.917 11.937 21.584C11.846 21.354 11.799 21.056 11.753 20.658C11.707 20.26 11.674 19.773 11.651 19.224C11.629 18.666 11.617 18.01 11.617 17.351C11.617 17.134 11.619 16.918 11.621 16.701C11.208 17.085 10.686 17.355 10.106 17.458L10.088 17.461C9.40703 17.578 8.80003 17.463 8.43703 17.371C8.24403 17.322 8.07603 17.253 7.91803 17.167C7.75203 17.077 7.59403 16.974 7.48803 16.773C7.44603 16.696 7.42103 16.603 7.42103 16.505C7.42103 16.466 7.42503 16.427 7.43303 16.391C7.46903 16.257 7.54403 16.143 7.64703 16.063L7.64803 16.062C7.84403 15.901 8.10203 15.811 8.49303 15.729C9.20303 15.581 9.45103 15.48 9.60203 15.359C9.73003 15.255 9.87603 15.045 10.132 14.737C10.131 14.728 10.13 14.713 10.129 14.699V14.696C9.64503 14.682 9.19403 14.551 8.80003 14.33L8.81503 14.338C8.66703 14.496 7.91003 15.306 6.98803 16.43C6.60003 16.9 6.17103 17.17 5.71903 17.189C5.26703 17.208 4.85803 16.978 4.51003 16.637C3.81503 15.954 3.26103 14.779 2.77803 13.451C2.29603 12.123 1.90403 10.644 1.62503 9.384C1.34503 8.124 1.18103 7.108 1.15703 6.618C1.05303 4.536 1.53403 3.133 2.35903 2.248C3.18503 1.363 4.31703 1.028 5.42003 0.964C7.40103 0.849 9.28103 1.548 9.66203 1.698C10.396 1.194 11.341 0.88 12.52 0.9C13.114 0.909 13.685 0.988 14.231 1.129L14.181 1.118L14.201 1.109C14.392 1.037 14.636 0.964 14.886 0.904L14.93 0.895Z" fill="#282828"/>
<path id="Vector_12" d="M12.561 0.258H12.551C11.387 0.238 10.388 0.524 9.58103 1C8.78703 0.721 7.14003 0.24 5.40303 0.336C4.19403 0.403 2.87403 0.775 1.89603 1.82C0.921028 2.865 0.406028 4.482 0.514028 6.682C0.544028 7.289 0.715028 8.279 0.998028 9.561C1.28203 10.843 1.68003 12.344 2.17703 13.713C2.67403 15.083 3.21803 16.313 4.06903 17.149C4.49403 17.568 5.07903 17.92 5.76803 17.891C6.25203 17.871 6.68903 17.656 7.06703 17.339C7.25103 17.584 7.44703 17.691 7.62603 17.79C7.85103 17.915 8.07003 18 8.29703 18.056C8.70503 18.159 9.40303 18.297 10.221 18.156C10.5 18.109 10.793 18.017 11.085 17.886C11.096 18.216 11.109 18.539 11.121 18.866C11.162 19.902 11.187 20.859 11.494 21.698C11.543 21.835 11.679 22.541 12.212 23.164C12.745 23.788 13.791 24.177 14.981 23.919C15.821 23.737 16.888 23.409 17.598 22.387C18.299 21.377 18.615 19.928 18.678 17.578C18.694 17.451 18.713 17.343 18.732 17.242L18.899 17.257H18.919C19.815 17.298 20.787 17.169 21.599 16.787C22.318 16.45 22.862 16.109 23.259 15.504C23.358 15.354 23.466 15.173 23.496 14.861C23.526 14.549 23.349 14.061 23.055 13.836C22.467 13.384 22.098 13.556 21.702 13.639C21.349 13.722 20.941 13.774 20.523 13.785H20.515C21.657 11.838 22.476 9.77 22.943 7.94C23.22 6.86 23.375 5.864 23.387 4.993C23.4 4.122 23.33 3.351 22.814 2.684C21.203 0.6 18.938 0.024 17.185 0.004C17.131 0.003 17.076 0.002 17.022 0.003V0C16.068 0.008 15.15 0.152 14.281 0.409L14.24 0.423C13.738 0.329 13.155 0.269 12.561 0.258ZM14.93 0.895C15.542 0.744 16.246 0.653 16.97 0.644H16.976L16.977 0.64C18.635 0.624 20.752 1.095 22.273 3.062C22.615 3.504 22.717 4.15 22.705 4.946C22.692 5.741 22.547 6.693 22.281 7.736C21.765 9.756 20.791 12.111 19.419 14.224C19.464 14.257 19.516 14.286 19.57 14.308L19.575 14.31C19.861 14.43 20.514 14.533 21.817 14.262C22.145 14.192 22.385 14.145 22.634 14.337C22.746 14.433 22.816 14.575 22.816 14.734C22.816 14.744 22.816 14.754 22.815 14.764V14.763C22.8 14.89 22.755 15.004 22.686 15.099C22.434 15.482 21.937 15.845 21.301 16.144C20.737 16.41 19.928 16.549 19.211 16.557C18.851 16.561 18.52 16.533 18.238 16.444L18.22 16.437C18.111 17.497 17.861 19.59 17.698 20.545C17.568 21.315 17.34 21.927 16.904 22.385C16.469 22.843 15.854 23.119 15.026 23.299C14.001 23.522 13.253 23.282 12.771 22.871C12.29 22.461 12.07 21.917 11.937 21.584C11.846 21.354 11.799 21.056 11.753 20.658C11.707 20.26 11.674 19.773 11.651 19.224C11.629 18.666 11.617 18.01 11.617 17.351C11.617 17.134 11.619 16.918 11.621 16.701C11.208 17.085 10.686 17.355 10.106 17.458L10.088 17.461C9.40703 17.578 8.80003 17.463 8.43703 17.371C8.24403 17.322 8.07603 17.253 7.91803 17.167C7.75203 17.077 7.59403 16.974 7.48803 16.773C7.44603 16.696 7.42103 16.603 7.42103 16.505C7.42103 16.466 7.42503 16.427 7.43303 16.391C7.46903 16.257 7.54403 16.143 7.64703 16.063L7.64803 16.062C7.84403 15.901 8.10203 15.811 8.49303 15.729C9.20303 15.581 9.45103 15.48 9.60203 15.359C9.73003 15.255 9.87603 15.045 10.132 14.737C10.131 14.728 10.13 14.713 10.129 14.699V14.696C9.64503 14.682 9.19403 14.551 8.80003 14.33L8.81503 14.338C8.66703 14.496 7.91003 15.306 6.98803 16.43C6.60003 16.9 6.17103 17.17 5.71903 17.189C5.26703 17.208 4.85803 16.978 4.51003 16.637C3.81503 15.954 3.26103 14.779 2.77803 13.451C2.29603 12.123 1.90403 10.644 1.62503 9.384C1.34503 8.124 1.18103 7.108 1.15703 6.618C1.05303 4.536 1.53403 3.133 2.35903 2.248C3.18503 1.363 4.31703 1.028 5.42003 0.964C7.40103 0.849 9.28103 1.548 9.66203 1.698C10.396 1.194 11.341 0.88 12.52 0.9C13.114 0.909 13.685 0.988 14.231 1.129L14.181 1.118L14.201 1.109C14.392 1.037 14.636 0.964 14.886 0.904L14.93 0.895Z" fill="#282828"/>
</g>
<defs>
<clipPath id="clip0_170_60">
<rect width="24" height="24" fill="white"/>
</clipPath>
</defs>
</svg>
