<?xml version="1.0" standalone="no"?>
<!DOCTYPE svg PUBLIC "-//W3C//DTD SVG 20010904//EN"
 "http://www.w3.org/TR/2001/REC-SVG-20010904/DTD/svg10.dtd">
<svg version="1.0" xmlns="http://www.w3.org/2000/svg"
 width="64.000000pt" height="64.000000pt" viewBox="0 0 64.000000 64.000000"
 preserveAspectRatio="xMidYMid meet">

<g transform="translate(0.000000,64.000000) scale(0.100000,-0.100000)"
fill="#000000" stroke="none">
<path d="M267 626 c-51 -19 -76 -42 -99 -95 -30 -66 -18 -123 36 -178 l42 -42
-41 -16 c-50 -19 -116 -73 -144 -118 -27 -44 -56 -156 -43 -169 6 -6 12 8 17
39 10 70 28 107 80 162 113 121 297 121 410 0 52 -55 70 -92 80 -162 4 -28 11
-45 16 -40 14 14 -8 111 -36 159 -31 53 -95 109 -150 129 l-41 16 42 42 c54
55 66 112 36 178 -10 24 -28 52 -40 62 -22 20 -86 46 -112 46 -8 0 -32 -6 -53
-13z m132 -33 c68 -52 88 -130 49 -197 -59 -100 -198 -100 -255 0 -35 60 -27
121 20 173 49 53 132 63 186 24z"/>
</g>
</svg>
