<svg width="20" height="24" viewBox="0 0 20 24" fill="none" xmlns="http://www.w3.org/2000/svg">
<path d="M6.3102 1.44052C4.95795 2.23423 3.84577 2.88831 3.84332 2.89321C3.82862 2.90546 6.52332 3.51544 8.19649 3.878C9.54384 4.16952 10.8006 4.42919 10.8104 4.41694C10.8152 4.41204 10.6266 4.03723 10.389 3.58648C9.86231 2.5821 9.55854 1.91087 8.91916 0.347942C8.84322 0.159313 8.77708 0.00253057 8.77463 8.10623e-05C8.77218 -0.00236893 7.66245 0.64436 6.3102 1.44052Z" fill="black"/>
<path d="M4.12272 3.91956C5.1908 5.07828 5.49457 5.41879 5.72729 5.73481C5.98696 6.08512 6.21479 6.50157 6.39607 6.95967L6.47201 7.1532L6.9497 7.23404C7.81691 7.37858 8.89724 7.6162 9.65176 7.82933C9.79629 7.87097 9.92857 7.89792 9.94327 7.88812C9.98002 7.86607 10.5827 6.94008 10.835 6.52117C11.1167 6.05082 11.4891 5.38205 11.4744 5.3698C11.4695 5.3649 11.053 5.27671 10.5484 5.17627C8.61552 4.79166 5.6195 4.14249 4.24275 3.81422C4.13497 3.78728 4.02963 3.76523 4.01248 3.76523C3.99288 3.76523 4.04433 3.83382 4.12272 3.91956Z" fill="black"/>
<path d="M12.2263 5.9871C11.9446 6.51134 11.5429 7.18502 11.1754 7.75336C11.0162 7.99833 10.8888 8.20411 10.8937 8.20901C10.8986 8.21146 11.075 8.2727 11.2832 8.34619C11.7682 8.51032 12.3978 8.75285 12.8584 8.94638L13.2209 9.10071L13.4708 8.80429C14.1886 7.95423 15.3399 6.39131 15.2861 6.33741C15.2542 6.31047 14.6614 6.11204 14.2964 6.00915C13.728 5.84992 12.5816 5.578 12.486 5.578C12.4615 5.578 12.3684 5.72498 12.2263 5.9871Z" fill="black"/>
<path d="M15.9499 7.08953C15.5163 7.74116 14.9749 8.46383 14.3993 9.162C14.2449 9.34818 14.1224 9.50496 14.1273 9.50741C14.1322 9.51231 14.2866 9.5907 14.4679 9.68134C14.8647 9.87977 15.3277 10.1272 15.7295 10.3575L16.0259 10.524L16.4766 10.4016C16.7265 10.333 17.459 10.1345 18.1057 9.96061C18.7524 9.78423 19.2914 9.63235 19.3036 9.6201C19.3159 9.60785 19.2448 9.49761 19.137 9.35798C18.4585 8.49322 17.6917 7.72401 17.0156 7.22181C16.8465 7.09688 16.2439 6.72942 16.2072 6.72942C16.1974 6.72942 16.0822 6.8911 15.9499 7.08953Z" fill="black"/>
<path d="M6.73636 8.27037C6.74616 8.33162 6.75841 8.58149 6.76575 8.82401C6.7829 9.33355 6.74616 9.69122 6.63102 10.1395C6.3738 11.1243 5.9059 11.7539 3.88732 13.8141C3.6399 14.0664 3.44392 14.2747 3.45372 14.2747C3.46352 14.2747 3.56151 14.211 3.67175 14.135C4.43606 13.601 5.23957 12.9739 5.95489 12.3516C6.47669 11.896 7.76279 10.6123 8.2013 10.1101C8.73779 9.49279 9.34042 8.74807 9.32082 8.72602C9.27673 8.68438 7.71625 8.33162 7.04747 8.21403L6.72166 8.15524L6.73636 8.27037Z" fill="black"/>
<path d="M9.9996 9.40701C9.30878 10.3085 8.6596 11.0459 7.79239 11.9131C7.13587 12.5696 6.69737 12.9714 6.07023 13.4932C5.87181 13.6573 5.69298 13.8092 5.67338 13.8288C5.62683 13.8753 5.61459 13.8802 6.04084 13.6916C6.67287 13.4148 7.62091 13.0669 8.92907 12.6309C9.86486 12.3197 9.75708 12.3785 10.4503 11.7979C11.004 11.3349 11.6336 10.7568 12.1382 10.2473L12.5424 9.84306L12.3807 9.76957C12.0941 9.64218 11.3861 9.37516 10.8374 9.19143L10.3058 9.01015L9.9996 9.40701Z" fill="black"/>
<path d="M13.0837 10.6318C12.8828 10.8449 12.5815 11.1487 12.4174 11.3055C12.2508 11.4623 12.121 11.5921 12.1259 11.597C12.1308 11.6019 12.4688 11.5063 12.8779 11.3863C13.287 11.2663 13.8554 11.107 14.1371 11.0287C14.4213 10.9527 14.6589 10.8817 14.6711 10.8719C14.6858 10.8547 13.6618 10.3158 13.5124 10.2619C13.4561 10.2423 13.4242 10.2692 13.0837 10.6318Z" fill="black"/>
<path d="M12.6796 12.2462C12.5106 12.3001 11.9937 12.4618 11.5282 12.6088C9.57823 13.2261 7.44206 13.9708 6.47932 14.375C6.13636 14.5171 4.99723 15.0291 4.03204 15.4749C2.41032 16.2221 1.95712 16.4401 1.87628 16.5136C1.7146 16.6582 1.37899 17.0256 1.17321 17.2853C0.200665 18.5028 -0.191291 19.6493 0.0879779 20.4601C0.178618 20.7247 0.646516 21.2808 1.08992 21.6532C1.58476 22.0672 2.37602 22.5253 3.05215 22.7874C4.55138 23.3729 6.43033 23.6913 9.91139 23.951C10.2691 23.978 10.5753 24 10.5924 24C10.6267 24 10.9158 23.4194 11.3126 22.5547C12.2019 20.6243 12.8143 18.2186 13.0323 15.8057C13.1524 14.4779 13.1401 12.1825 13.0103 12.1531C12.998 12.1507 12.8486 12.1923 12.6796 12.2462Z" fill="black"/>
</svg>
