<?xml version="1.0" encoding="UTF-8"?>
<svg xmlns="http://www.w3.org/2000/svg" xmlns:xlink="http://www.w3.org/1999/xlink" width="24px" height="24px" viewBox="0 0 24 24" version="1.1">
<defs>
<linearGradient id="linear0" gradientUnits="userSpaceOnUse" x1="2.98529" y1="16.9017" x2="4.37835" y2="16.0322" gradientTransform="matrix(0.76385,0,0,0.76385,5.535499,4.621052)">
<stop offset="0" style="stop-color:rgb(56.470588%,61.176471%,66.27451%);stop-opacity:1;"/>
<stop offset="1" style="stop-color:rgb(92.941176%,92.941176%,93.333333%);stop-opacity:1;"/>
</linearGradient>
<linearGradient id="linear1" gradientUnits="userSpaceOnUse" x1="3.01809" y1="1.77057" x2="4.17259" y2="1.77057" gradientTransform="matrix(0.76385,0,0,0.76385,5.535499,4.621052)">
<stop offset="0" style="stop-color:rgb(57.647059%,62.352941%,67.058824%);stop-opacity:1;"/>
<stop offset="1" style="stop-color:rgb(86.27451%,87.058824%,88.235294%);stop-opacity:1;"/>
</linearGradient>
</defs>
<g id="surface1">
<path style=" stroke:none;fill-rule:nonzero;fill:url(#linear0);" d="M 14.265625 11.308594 L 11.234375 12.246094 L 8.597656 13.347656 L 7.859375 13.53125 C 7.671875 13.703125 7.476562 13.875 7.261719 14.046875 C 7.027344 14.238281 6.8125 14.410156 6.644531 14.535156 C 6.457031 14.675781 6.183594 14.9375 6.042969 15.101562 C 5.835938 15.347656 5.671875 15.609375 5.597656 15.8125 C 5.472656 16.175781 5.535156 16.546875 5.777344 16.886719 C 6.089844 17.320312 6.710938 17.761719 7.433594 18.0625 C 7.804688 18.21875 8.425781 18.414062 8.890625 18.523438 C 9.667969 18.710938 11.171875 18.914062 11.996094 18.945312 C 12.164062 18.949219 12.390625 18.949219 12.398438 18.945312 C 12.417969 18.933594 12.546875 18.699219 12.695312 18.414062 C 13.203125 17.429688 13.570312 16.507812 13.769531 15.722656 C 13.886719 15.242188 13.980469 14.609375 14.042969 13.855469 C 14.058594 13.644531 14.066406 12.941406 14.054688 12.703125 C 14.03125 12.3125 13.996094 11.996094 13.9375 11.683594 C 13.929688 11.640625 13.925781 11.597656 13.929688 11.597656 C 13.941406 11.589844 13.96875 11.582031 14.339844 11.480469 Z M 13.574219 11.695312 C 13.601562 11.695312 13.675781 12.359375 13.691406 12.78125 C 13.699219 12.867188 13.695312 12.925781 13.691406 12.925781 C 13.671875 12.925781 13.304688 12.722656 13.039062 12.566406 C 12.8125 12.429688 12.375 12.15625 12.308594 12.101562 C 12.285156 12.089844 12.285156 12.085938 12.472656 12.027344 C 12.792969 11.921875 13.550781 11.695312 13.574219 11.695312 Z M 12.03125 12.175781 C 12.050781 12.175781 12.101562 12.203125 12.230469 12.277344 C 12.699219 12.558594 13.34375 12.894531 13.617188 13.007812 C 13.703125 13.042969 13.710938 13.03125 13.515625 13.15625 C 13.101562 13.425781 12.578125 13.6875 11.941406 13.957031 C 11.832031 14.003906 11.738281 14.039062 11.734375 14.039062 C 11.730469 14.039062 11.742188 13.984375 11.761719 13.921875 C 11.914062 13.382812 12.003906 12.835938 12.007812 12.394531 C 12.007812 12.179688 12.007812 12.179688 12.03125 12.171875 C 12.023438 12.175781 12.027344 12.175781 12.03125 12.175781 Z M 11.710938 12.289062 C 11.726562 12.304688 11.714844 12.789062 11.699219 12.921875 C 11.65625 13.238281 11.59375 13.53125 11.488281 13.863281 C 11.460938 13.945312 11.4375 14.011719 11.433594 14.015625 C 11.425781 14.027344 11.109375 13.738281 11.007812 13.625 C 10.828125 13.429688 10.691406 13.234375 10.585938 13.042969 C 10.535156 12.945312 10.453125 12.753906 10.457031 12.746094 C 10.496094 12.722656 11.703125 12.28125 11.710938 12.289062 Z M 10.214844 12.847656 C 10.214844 12.847656 10.21875 12.847656 10.21875 12.847656 C 10.226562 12.855469 10.242188 12.886719 10.253906 12.925781 C 10.328125 13.117188 10.492188 13.394531 10.632812 13.570312 C 10.789062 13.765625 10.996094 13.976562 11.164062 14.113281 C 11.21875 14.15625 11.269531 14.195312 11.277344 14.203125 C 11.289062 14.214844 11.292969 14.214844 10.921875 14.347656 C 10.488281 14.503906 10.015625 14.660156 9.476562 14.824219 C 9.347656 14.863281 9.21875 14.90625 9.089844 14.945312 C 9.066406 14.949219 9.074219 14.941406 9.132812 14.851562 C 9.402344 14.453125 9.808594 13.675781 10.039062 13.125 C 10.078125 13.03125 10.117188 12.933594 10.125 12.914062 C 10.132812 12.882812 10.144531 12.871094 10.175781 12.855469 C 10.191406 12.851562 10.207031 12.847656 10.214844 12.847656 Z M 9.753906 13.027344 C 9.761719 13.03125 9.644531 13.265625 9.53125 13.476562 C 9.308594 13.886719 9.066406 14.289062 8.738281 14.78125 C 8.683594 14.863281 8.632812 14.941406 8.625 14.949219 C 8.613281 14.964844 8.609375 14.960938 8.574219 14.894531 C 8.496094 14.75 8.429688 14.5625 8.394531 14.390625 C 8.363281 14.222656 8.367188 13.925781 8.40625 13.746094 C 8.4375 13.609375 8.433594 13.613281 8.503906 13.582031 C 8.796875 13.441406 9.746094 13.019531 9.753906 13.027344 Z M 13.707031 13.179688 L 13.707031 13.269531 C 13.707031 13.753906 13.652344 14.417969 13.570312 14.902344 C 13.558594 14.984375 13.546875 15.054688 13.542969 15.058594 C 13.542969 15.058594 13.476562 15.039062 13.398438 15.019531 C 13.054688 14.917969 12.683594 14.765625 12.347656 14.589844 C 12.125 14.476562 11.800781 14.289062 11.808594 14.277344 C 11.8125 14.277344 11.910156 14.230469 12.019531 14.171875 C 12.46875 13.953125 12.902344 13.710938 13.273438 13.476562 C 13.414062 13.386719 13.625 13.246094 13.671875 13.207031 Z M 8.023438 13.820312 C 8.035156 13.820312 8.03125 13.839844 8.019531 13.917969 C 8.007812 13.972656 7.996094 14.078125 7.992188 14.148438 C 7.976562 14.464844 8.03125 14.699219 8.195312 15.019531 C 8.242188 15.109375 8.277344 15.183594 8.273438 15.183594 C 8.257812 15.199219 6.742188 15.617188 6.265625 15.742188 C 6.125 15.78125 6 15.8125 5.992188 15.8125 C 5.976562 15.820312 5.972656 15.816406 5.980469 15.78125 C 6.03125 15.460938 6.289062 15.042969 6.644531 14.691406 C 6.882812 14.457031 7.074219 14.320312 7.398438 14.144531 C 7.632812 14.019531 7.992188 13.832031 8.019531 13.824219 C 8.019531 13.820312 8.023438 13.820312 8.023438 13.820312 Z M 11.597656 14.425781 C 11.601562 14.425781 11.65625 14.453125 11.722656 14.488281 C 12.214844 14.757812 12.894531 15.007812 13.476562 15.136719 L 13.53125 15.144531 L 13.457031 15.183594 C 13.152344 15.347656 12.152344 15.742188 11.128906 16.101562 C 10.976562 16.15625 10.832031 16.207031 10.804688 16.21875 C 10.777344 16.226562 10.75 16.234375 10.75 16.234375 C 10.75 16.230469 10.792969 16.15625 10.84375 16.0625 C 11.132812 15.554688 11.421875 14.9375 11.566406 14.507812 C 11.585938 14.464844 11.597656 14.429688 11.597656 14.425781 Z M 11.234375 14.539062 C 11.238281 14.542969 11.21875 14.585938 11.195312 14.640625 C 10.996094 15.097656 10.734375 15.59375 10.402344 16.15625 C 10.316406 16.296875 10.246094 16.414062 10.242188 16.414062 C 10.242188 16.414062 10.171875 16.375 10.089844 16.324219 C 9.605469 16.042969 9.171875 15.695312 8.890625 15.359375 L 8.851562 15.3125 L 9.058594 15.257812 C 9.804688 15.066406 10.441406 14.859375 11.070312 14.601562 C 11.160156 14.566406 11.234375 14.539062 11.234375 14.539062 Z M 13.5 15.289062 C 13.5 15.335938 13.382812 15.785156 13.289062 16.105469 C 13.207031 16.378906 13.140625 16.589844 13.011719 16.964844 C 12.957031 17.128906 12.910156 17.265625 12.90625 17.265625 C 12.90625 17.265625 12.890625 17.265625 12.878906 17.261719 C 12.195312 17.144531 11.585938 16.980469 11.015625 16.765625 C 10.855469 16.703125 10.625 16.605469 10.613281 16.59375 C 10.605469 16.589844 10.746094 16.53125 10.917969 16.457031 C 11.960938 16.027344 13.042969 15.535156 13.414062 15.328125 C 13.457031 15.300781 13.492188 15.289062 13.5 15.289062 Z M 8.273438 15.457031 C 8.277344 15.460938 7.988281 15.859375 7.578125 16.398438 C 7.4375 16.585938 7.273438 16.808594 7.210938 16.890625 C 7.148438 16.972656 7.054688 17.101562 7 17.179688 L 6.90625 17.320312 L 6.800781 17.238281 C 6.679688 17.144531 6.46875 16.941406 6.375 16.828125 C 6.179688 16.59375 6.046875 16.351562 5.992188 16.125 C 5.96875 16.023438 5.96875 15.96875 5.992188 15.964844 C 6.023438 15.957031 6.636719 15.820312 7.210938 15.691406 C 7.527344 15.625 7.898438 15.539062 8.03125 15.511719 C 8.164062 15.480469 8.269531 15.457031 8.273438 15.457031 Z M 8.566406 15.5625 L 8.640625 15.640625 C 8.96875 15.988281 9.304688 16.25 9.714844 16.472656 C 9.785156 16.511719 9.84375 16.546875 9.835938 16.550781 C 9.820312 16.558594 8.421875 17.03125 7.773438 17.242188 C 7.410156 17.363281 7.109375 17.460938 7.105469 17.460938 C 7.105469 17.460938 7.082031 17.449219 7.0625 17.433594 L 7.019531 17.40625 L 7.085938 17.316406 C 7.300781 17.019531 7.570312 16.695312 8.160156 16.023438 Z M 10.394531 16.800781 C 10.394531 16.800781 10.496094 16.832031 10.621094 16.878906 C 10.917969 16.984375 11.15625 17.050781 11.472656 17.125 C 11.859375 17.21875 12.425781 17.3125 12.757812 17.335938 C 12.804688 17.339844 12.835938 17.34375 12.824219 17.351562 C 12.808594 17.359375 12.472656 17.46875 12.226562 17.539062 C 11.832031 17.65625 10.628906 17.992188 9.648438 18.261719 C 9.464844 18.3125 9.308594 18.351562 9.300781 18.355469 C 9.277344 18.359375 9.203125 18.339844 9.203125 18.328125 C 9.203125 18.324219 9.257812 18.257812 9.324219 18.183594 C 9.652344 17.8125 9.980469 17.394531 10.253906 17 C 10.328125 16.890625 10.394531 16.804688 10.394531 16.800781 Z M 9.992188 16.8125 C 9.992188 16.8125 9.832031 17.0625 9.546875 17.488281 C 9.425781 17.667969 9.289062 17.871094 9.242188 17.941406 C 9.195312 18.011719 9.128906 18.121094 9.089844 18.179688 L 9.023438 18.289062 L 8.988281 18.28125 C 8.90625 18.261719 8.324219 18.066406 8.171875 18.007812 C 7.980469 17.9375 7.785156 17.851562 7.636719 17.777344 C 7.453125 17.683594 7.226562 17.546875 7.242188 17.539062 C 7.25 17.539062 7.5625 17.457031 7.941406 17.359375 C 8.945312 17.101562 9.5 16.953125 9.863281 16.84375 C 9.929688 16.824219 9.988281 16.808594 9.992188 16.8125 Z M 12.84375 17.445312 C 12.855469 17.46875 12.484375 18.441406 12.347656 18.75 C 12.320312 18.820312 12.308594 18.835938 12.292969 18.835938 C 12.253906 18.832031 11.714844 18.761719 11.386719 18.714844 C 10.816406 18.632812 9.859375 18.476562 9.617188 18.421875 L 9.5625 18.414062 L 9.902344 18.339844 C 10.636719 18.183594 10.988281 18.097656 11.347656 17.992188 C 11.796875 17.863281 12.246094 17.699219 12.695312 17.5 C 12.769531 17.472656 12.828125 17.449219 12.84375 17.445312 Z M 12.84375 17.445312 "/>
<path style=" stroke:none;fill-rule:nonzero;fill:url(#linear1);" d="M 11.140625 4.621094 C 11.089844 4.613281 10.277344 4.890625 9.753906 5.09375 C 9.042969 5.367188 8.496094 5.628906 8.15625 5.851562 C 8.03125 5.9375 7.871094 6.085938 7.847656 6.144531 C 7.835938 6.167969 7.832031 6.195312 7.832031 6.21875 L 8.140625 6.496094 L 8.871094 6.714844 L 10.609375 7.011719 L 12.597656 7.335938 L 12.617188 7.171875 C 12.613281 7.171875 12.605469 7.167969 12.601562 7.167969 L 12.339844 7.128906 L 12.285156 7.042969 C 12.015625 6.589844 11.71875 6.03125 11.542969 5.652344 C 11.410156 5.359375 11.28125 5.023438 11.210938 4.78125 C 11.171875 4.632812 11.167969 4.625 11.140625 4.621094 Z M 11.105469 4.730469 C 11.109375 4.734375 11.117188 4.792969 11.128906 4.867188 C 11.167969 5.167969 11.238281 5.460938 11.347656 5.78125 C 11.433594 6.019531 11.433594 6.003906 11.335938 5.976562 C 11.101562 5.914062 10.054688 5.746094 9.296875 5.644531 C 9.175781 5.628906 9.070312 5.613281 9.070312 5.613281 C 9.0625 5.605469 9.621094 5.328125 9.863281 5.21875 C 10.179688 5.082031 11.039062 4.742188 11.105469 4.730469 Z M 8.894531 5.703125 L 8.984375 5.730469 C 9.472656 5.886719 10.691406 6.109375 11.367188 6.160156 C 11.441406 6.167969 11.503906 6.175781 11.507812 6.175781 C 11.511719 6.175781 11.445312 6.207031 11.363281 6.246094 C 11.039062 6.398438 10.679688 6.589844 10.433594 6.734375 C 10.359375 6.777344 10.292969 6.8125 10.285156 6.8125 C 10.273438 6.8125 10.226562 6.804688 10.175781 6.796875 L 10.085938 6.785156 L 9.855469 6.570312 C 9.453125 6.199219 9.136719 5.914062 9.015625 5.804688 Z M 8.804688 5.769531 L 9.128906 6.152344 C 9.304688 6.363281 9.480469 6.570312 9.519531 6.613281 C 9.558594 6.660156 9.59375 6.695312 9.589844 6.699219 C 9.582031 6.707031 9.121094 6.621094 8.878906 6.570312 C 8.628906 6.515625 8.527344 6.488281 8.375 6.441406 L 8.246094 6.402344 L 8.246094 6.375 C 8.25 6.226562 8.445312 6.011719 8.773438 5.789062 Z M 11.546875 6.292969 C 11.558594 6.292969 11.570312 6.3125 11.597656 6.371094 C 11.675781 6.53125 11.917969 6.96875 11.976562 7.054688 C 11.996094 7.082031 12.027344 7.085938 11.703125 7.035156 C 10.929688 6.914062 10.679688 6.875 10.679688 6.871094 C 10.679688 6.871094 10.699219 6.855469 10.730469 6.839844 C 10.972656 6.714844 11.214844 6.554688 11.429688 6.382812 C 11.480469 6.339844 11.53125 6.300781 11.539062 6.296875 C 11.542969 6.292969 11.546875 6.289062 11.546875 6.292969 Z M 11.546875 6.292969 "/>
<path style=" stroke:none;fill-rule:nonzero;fill:rgb(15.686275%,15.686275%,15.686275%);fill-opacity:1;" d="M 8.144531 6.117188 C 8.144531 6.117188 8.082031 6.210938 8.140625 6.347656 C 8.179688 6.433594 8.285156 6.539062 8.410156 6.644531 C 8.410156 6.644531 9.667969 7.808594 9.820312 7.972656 C 10.515625 8.734375 10.816406 9.484375 10.84375 10.515625 C 10.863281 11.179688 10.730469 11.761719 10.398438 12.441406 C 9.8125 13.65625 8.570312 14.996094 6.65625 16.484375 L 6.933594 16.398438 C 7.117188 16.269531 7.363281 16.132812 7.9375 15.832031 C 9.269531 15.140625 10.769531 14.507812 12.605469 13.855469 C 15.253906 12.910156 19.605469 11.808594 22.082031 11.449219 L 22.339844 11.414062 L 22.300781 11.355469 C 22.074219 11.023438 21.917969 10.816406 21.730469 10.597656 C 21.1875 9.960938 20.53125 9.441406 19.722656 9.015625 C 18.617188 8.429688 17.183594 7.96875 15.367188 7.628906 C 15.023438 7.566406 14.273438 7.441406 13.660156 7.355469 C 12.367188 7.164062 11.53125 7.035156 10.609375 6.882812 C 10.277344 6.832031 9.78125 6.75 9.453125 6.683594 C 9.285156 6.648438 8.960938 6.574219 8.707031 6.492188 C 8.5 6.417969 8.207031 6.34375 8.144531 6.117188 Z M 8.875 6.785156 C 8.878906 6.78125 8.921875 6.796875 8.980469 6.816406 C 9.089844 6.851562 9.226562 6.890625 9.390625 6.933594 C 9.515625 6.96875 9.640625 7 9.765625 7.027344 C 9.933594 7.066406 10.078125 7.105469 10.078125 7.105469 C 10.097656 7.125 10.386719 7.988281 10.480469 8.320312 C 10.519531 8.445312 10.546875 8.554688 10.542969 8.554688 C 10.539062 8.558594 10.507812 8.511719 10.472656 8.449219 C 10.140625 7.898438 9.617188 7.339844 9.011719 6.890625 C 8.933594 6.835938 8.875 6.789062 8.875 6.785156 Z M 10.265625 7.148438 C 10.28125 7.148438 10.34375 7.15625 10.417969 7.171875 C 10.898438 7.273438 11.761719 7.429688 12.3125 7.519531 C 12.40625 7.53125 12.480469 7.546875 12.480469 7.554688 C 12.480469 7.558594 12.445312 7.578125 12.402344 7.597656 C 12.308594 7.644531 11.933594 7.855469 11.808594 7.9375 C 11.496094 8.132812 11.214844 8.347656 11.007812 8.539062 C 10.925781 8.617188 10.855469 8.683594 10.855469 8.683594 C 10.855469 8.683594 10.839844 8.636719 10.824219 8.582031 C 10.722656 8.207031 10.511719 7.65625 10.320312 7.269531 C 10.289062 7.207031 10.261719 7.152344 10.261719 7.144531 C 10.261719 7.152344 10.261719 7.148438 10.265625 7.148438 Z M 12.714844 7.589844 C 12.730469 7.59375 12.761719 7.6875 12.816406 7.886719 C 12.921875 8.277344 12.96875 8.710938 12.953125 9.113281 C 12.945312 9.226562 12.941406 9.332031 12.933594 9.34375 L 12.925781 9.371094 L 12.78125 9.324219 C 12.476562 9.234375 11.984375 9.097656 11.5625 8.984375 C 11.324219 8.921875 11.128906 8.867188 11.128906 8.863281 C 11.128906 8.847656 11.480469 8.515625 11.628906 8.386719 C 11.914062 8.148438 12.6875 7.582031 12.714844 7.589844 Z M 12.910156 7.617188 C 12.917969 7.609375 14.082031 7.800781 14.609375 7.894531 C 15.003906 7.96875 15.574219 8.082031 15.605469 8.09375 C 15.625 8.097656 15.566406 8.132812 15.375 8.210938 C 14.628906 8.53125 14.074219 8.816406 13.523438 9.164062 C 13.378906 9.253906 13.257812 9.332031 13.253906 9.332031 C 13.253906 9.332031 13.25 9.253906 13.25 9.160156 C 13.25 8.648438 13.140625 8.136719 12.945312 7.703125 C 12.925781 7.660156 12.90625 7.621094 12.910156 7.617188 Z M 15.914062 8.179688 C 15.925781 8.1875 15.886719 8.402344 15.851562 8.53125 C 15.75 8.929688 15.476562 9.523438 15.140625 10.078125 C 15.082031 10.179688 15.027344 10.257812 15.023438 10.261719 C 15.015625 10.265625 14.941406 10.222656 14.851562 10.175781 C 14.523438 9.992188 14.152344 9.824219 13.742188 9.664062 C 13.632812 9.617188 13.53125 9.578125 13.527344 9.574219 C 13.507812 9.558594 14.417969 8.988281 14.902344 8.714844 C 15.28125 8.496094 15.90625 8.167969 15.914062 8.179688 Z M 16.128906 8.210938 C 16.15625 8.210938 16.671875 8.34375 16.9375 8.421875 C 17.605469 8.609375 18.367188 8.871094 18.863281 9.085938 L 19.070312 9.175781 L 18.925781 9.207031 C 17.710938 9.472656 16.671875 9.777344 15.667969 10.164062 C 15.585938 10.195312 15.511719 10.222656 15.503906 10.222656 C 15.5 10.222656 15.527344 10.160156 15.566406 10.085938 C 15.867188 9.476562 16.0625 8.84375 16.109375 8.300781 C 16.113281 8.25 16.121094 8.210938 16.128906 8.210938 Z M 11.007812 9.324219 C 11.015625 9.316406 11.410156 9.40625 11.621094 9.460938 C 11.941406 9.546875 12.628906 9.765625 12.628906 9.78125 C 12.628906 9.78125 12.550781 9.84375 12.460938 9.917969 C 12.089844 10.210938 11.734375 10.519531 11.304688 10.910156 C 11.179688 11.023438 11.070312 11.117188 11.066406 11.117188 C 11.0625 11.117188 11.058594 11.101562 11.0625 11.082031 C 11.125 10.632812 11.113281 10.054688 11.019531 9.464844 C 11.011719 9.390625 11.003906 9.328125 11.007812 9.324219 Z M 19.265625 9.332031 C 19.273438 9.339844 19.085938 9.617188 18.964844 9.773438 C 18.796875 10.003906 18.546875 10.308594 17.984375 10.980469 C 17.6875 11.332031 17.355469 11.730469 17.246094 11.863281 C 17.132812 12 17.039062 12.113281 17.035156 12.113281 C 17.03125 12.113281 16.996094 12.0625 16.957031 12.003906 C 16.640625 11.554688 16.261719 11.160156 15.8125 10.808594 C 15.726562 10.742188 15.632812 10.667969 15.601562 10.648438 C 15.570312 10.625 15.546875 10.605469 15.546875 10.601562 C 15.546875 10.59375 16.027344 10.398438 16.390625 10.257812 C 17.03125 10.011719 17.902344 9.71875 18.554688 9.527344 C 18.894531 9.425781 19.261719 9.328125 19.265625 9.332031 Z M 19.484375 9.386719 C 19.496094 9.382812 19.5625 9.414062 19.644531 9.460938 C 20.332031 9.832031 21.003906 10.3125 21.535156 10.804688 C 21.6875 10.945312 22.058594 11.308594 22.050781 11.3125 C 22.050781 11.3125 21.921875 11.320312 21.769531 11.332031 C 20.578125 11.417969 19.054688 11.65625 17.589844 11.992188 C 17.492188 12.011719 17.402344 12.03125 17.398438 12.03125 C 17.390625 12.03125 17.503906 11.925781 17.640625 11.800781 C 18.5 11.015625 18.894531 10.519531 19.355469 9.636719 C 19.421875 9.507812 19.476562 9.394531 19.484375 9.386719 C 19.480469 9.386719 19.480469 9.386719 19.484375 9.386719 Z M 13.1875 9.996094 C 13.226562 10.003906 13.59375 10.167969 13.871094 10.300781 C 14.125 10.417969 14.507812 10.613281 14.527344 10.628906 C 14.53125 10.632812 14.394531 10.699219 14.226562 10.777344 C 13.695312 11.027344 13.242188 11.265625 12.765625 11.539062 C 12.628906 11.617188 12.515625 11.679688 12.515625 11.679688 C 12.503906 11.679688 12.503906 11.667969 12.582031 11.539062 C 12.835938 11.101562 13.039062 10.574219 13.15625 10.0625 C 13.167969 10.023438 13.179688 9.996094 13.1875 9.996094 Z M 12.820312 10.0625 C 12.828125 10.070312 12.730469 10.398438 12.671875 10.578125 C 12.554688 10.917969 12.359375 11.34375 12.171875 11.664062 C 12.125 11.738281 12.058594 11.847656 12.023438 11.910156 L 11.953125 12.019531 L 11.792969 11.875 C 11.609375 11.703125 11.460938 11.601562 11.265625 11.507812 C 11.191406 11.46875 11.132812 11.4375 11.132812 11.429688 C 11.132812 11.410156 11.613281 10.996094 11.984375 10.695312 C 12.25 10.480469 12.8125 10.054688 12.820312 10.0625 Z M 15.066406 10.9375 L 15.207031 11.023438 C 15.523438 11.21875 15.894531 11.476562 16.179688 11.703125 C 16.34375 11.832031 16.652344 12.09375 16.714844 12.160156 L 16.75 12.195312 L 16.519531 12.257812 C 15.226562 12.597656 14.226562 12.898438 13.058594 13.304688 C 12.925781 13.351562 12.816406 13.386719 12.808594 13.386719 C 12.792969 13.386719 12.777344 13.402344 13.066406 13.148438 C 13.816406 12.496094 14.476562 11.78125 14.96875 11.082031 Z M 14.476562 11.074219 C 14.480469 11.082031 14.09375 11.597656 13.863281 11.890625 C 13.585938 12.238281 13.09375 12.820312 12.753906 13.199219 C 12.613281 13.359375 12.492188 13.488281 12.484375 13.492188 C 12.476562 13.496094 12.472656 13.457031 12.472656 13.394531 C 12.472656 13.070312 12.386719 12.722656 12.234375 12.429688 C 12.167969 12.308594 12.15625 12.277344 12.171875 12.265625 C 12.226562 12.21875 13.046875 11.773438 13.570312 11.507812 C 13.917969 11.332031 14.46875 11.070312 14.476562 11.074219 Z M 10.902344 11.90625 C 10.910156 11.90625 10.976562 11.9375 11.050781 11.976562 C 11.230469 12.070312 11.390625 12.171875 11.535156 12.285156 C 11.542969 12.289062 11.46875 12.347656 11.371094 12.414062 C 11.101562 12.597656 10.695312 12.886719 10.457031 13.066406 C 10.210938 13.253906 10.199219 13.261719 10.230469 13.21875 C 10.414062 12.949219 10.507812 12.796875 10.609375 12.601562 C 10.695312 12.425781 10.785156 12.222656 10.84375 12.042969 C 10.867188 11.964844 10.898438 11.90625 10.902344 11.90625 Z M 11.855469 12.613281 C 11.871094 12.609375 11.886719 12.632812 11.960938 12.742188 C 12.125 12.96875 12.25 13.273438 12.28125 13.519531 L 12.285156 13.574219 L 11.898438 13.714844 C 11.203125 13.96875 10.566406 14.222656 10.132812 14.40625 C 10.011719 14.460938 9.800781 14.558594 9.660156 14.621094 C 9.523438 14.6875 9.410156 14.738281 9.410156 14.738281 C 9.410156 14.734375 9.496094 14.671875 9.605469 14.597656 C 10.449219 14.015625 11.183594 13.378906 11.730469 12.742188 C 11.789062 12.675781 11.84375 12.613281 11.847656 12.613281 Z M 11.417969 12.714844 C 11.429688 12.722656 11.105469 13.070312 10.886719 13.28125 C 10.339844 13.808594 9.800781 14.222656 9.128906 14.621094 C 9.042969 14.671875 8.96875 14.71875 8.960938 14.722656 C 8.941406 14.734375 8.964844 14.707031 9.257812 14.40625 C 9.445312 14.214844 9.585938 14.054688 9.75 13.855469 C 9.855469 13.726562 9.875 13.707031 10.03125 13.601562 C 10.445312 13.320312 11.40625 12.703125 11.417969 12.714844 Z M 11.417969 12.714844 "/>
<path style=" stroke:none;fill-rule:nonzero;fill:rgb(15.686275%,15.686275%,15.686275%);fill-opacity:1;" d="M 5.171875 18.507812 C 5.140625 18.507812 5.105469 18.511719 5.070312 18.511719 C 4.375 18.550781 3.90625 18.875 3.632812 19.507812 C 3.398438 20.082031 3.425781 20.828125 3.636719 21.40625 C 3.882812 21.96875 4.277344 22.265625 4.941406 22.378906 C 5.082031 22.402344 5.175781 22.484375 5.449219 22.820312 L 5.78125 23.234375 L 6.386719 23.234375 L 5.984375 22.804688 C 5.761719 22.566406 5.582031 22.363281 5.582031 22.34375 C 5.582031 22.324219 5.667969 22.285156 5.769531 22.253906 C 6.109375 22.144531 6.390625 21.863281 6.589844 21.4375 C 6.75 21.09375 6.773438 20.988281 6.796875 20.5625 C 6.855469 19.292969 6.222656 18.5 5.171875 18.507812 Z M 5.703125 21.828125 C 5.410156 21.980469 4.980469 22.011719 4.703125 21.902344 C 4.414062 21.789062 4.132812 21.472656 4.007812 21.109375 C 3.867188 20.71875 3.886719 19.992188 4.046875 19.664062 C 4.304688 19.140625 4.644531 18.902344 5.140625 18.902344 C 5.878906 18.902344 6.296875 19.382812 6.351562 20.28125 C 6.394531 21.03125 6.160156 21.59375 5.703125 21.828125 Z M 16.171875 19.59375 C 15.917969 19.59375 15.722656 19.703125 15.59375 19.917969 L 15.488281 20.089844 L 15.488281 19.644531 L 15.050781 19.644531 L 15.050781 22.300781 L 15.488281 22.300781 L 15.488281 21.449219 C 15.488281 20.675781 15.5 20.585938 15.601562 20.371094 C 15.742188 20.082031 15.984375 19.9375 16.21875 20.003906 L 16.375 20.054688 L 16.375 19.59375 Z M 13.589844 19.570312 C 13.503906 19.570312 13.410156 19.582031 13.320312 19.601562 C 12.730469 19.765625 12.398438 20.363281 12.417969 20.976562 C 12.417969 21.492188 12.515625 21.75 12.75 22.019531 C 13.226562 22.4375 13.660156 22.472656 14.246094 22.246094 C 14.347656 22.203125 14.457031 22.148438 14.457031 22.148438 L 14.457031 21.730469 L 14.246094 21.847656 C 13.773438 22.066406 13.417969 22.066406 13.128906 21.808594 C 12.949219 21.609375 12.867188 21.375 12.832031 21.105469 L 14.605469 21.105469 L 14.605469 20.746094 C 14.605469 20.019531 14.191406 19.558594 13.589844 19.570312 Z M 12.871094 20.734375 C 12.871094 20.734375 12.9375 20.277344 13.179688 20.097656 C 13.296875 20.011719 13.429688 19.96875 13.5625 19.96875 C 13.695312 19.96875 13.824219 20.015625 13.933594 20.101562 C 14.15625 20.285156 14.195312 20.730469 14.195312 20.730469 L 12.871094 20.730469 Z M 2.265625 20.253906 C 1.789062 19.949219 1.578125 19.726562 1.601562 19.464844 C 1.675781 18.746094 2.515625 18.84375 2.980469 19.117188 L 2.984375 18.632812 C 2.984375 18.632812 2.726562 18.515625 2.359375 18.507812 C 1.792969 18.5 1.429688 18.695312 1.257812 19.097656 C 1.003906 19.6875 1.230469 20.132812 2.035156 20.628906 C 2.484375 20.90625 2.683594 21.148438 2.683594 21.414062 C 2.683594 21.960938 2.066406 22.148438 1.425781 21.808594 C 1.292969 21.738281 1.183594 21.679688 1.175781 21.679688 C 1.152344 21.835938 1.164062 22.203125 1.164062 22.203125 C 1.164062 22.203125 1.363281 22.292969 1.65625 22.351562 C 2.386719 22.507812 3.054688 22.144531 3.117188 21.554688 C 3.171875 21 2.980469 20.707031 2.265625 20.253906 Z M 20.066406 19.5625 C 19.980469 19.5625 19.890625 19.574219 19.792969 19.597656 C 19.207031 19.761719 18.875 20.359375 18.898438 20.972656 C 18.898438 21.484375 18.992188 21.742188 19.226562 22.011719 C 19.707031 22.429688 20.140625 22.460938 20.730469 22.238281 C 20.828125 22.191406 20.9375 22.140625 20.9375 22.140625 L 20.9375 21.722656 L 20.726562 21.839844 C 20.253906 22.054688 19.894531 22.054688 19.609375 21.800781 C 19.429688 21.601562 19.347656 21.367188 19.3125 21.097656 L 21.082031 21.097656 L 21.082031 20.738281 C 21.082031 20.011719 20.667969 19.550781 20.066406 19.5625 Z M 19.347656 20.726562 C 19.347656 20.726562 19.414062 20.273438 19.65625 20.089844 C 19.773438 20.003906 19.910156 19.960938 20.039062 19.960938 C 20.171875 19.960938 20.304688 20.003906 20.410156 20.09375 C 20.632812 20.273438 20.671875 20.722656 20.671875 20.722656 L 19.347656 20.722656 Z M 11.285156 20.261719 C 10.808594 19.953125 10.597656 19.734375 10.625 19.472656 C 10.699219 18.75 11.539062 18.851562 12.003906 19.125 L 12.003906 18.640625 C 12.003906 18.640625 11.75 18.519531 11.378906 18.515625 C 10.816406 18.507812 10.449219 18.703125 10.277344 19.101562 C 10.027344 19.695312 10.25 20.140625 11.054688 20.636719 C 11.503906 20.914062 11.707031 21.152344 11.707031 21.417969 C 11.707031 21.960938 11.085938 22.15625 10.445312 21.8125 C 10.316406 21.742188 10.203125 21.683594 10.195312 21.683594 C 10.175781 21.839844 10.1875 22.207031 10.1875 22.207031 C 10.1875 22.207031 10.378906 22.292969 10.675781 22.355469 C 11.40625 22.511719 12.070312 22.148438 12.132812 21.558594 C 12.1875 21.003906 12 20.714844 11.285156 20.261719 Z M 22.652344 19.585938 C 22.398438 19.585938 22.199219 19.695312 22.070312 19.910156 L 21.96875 20.082031 L 21.96875 19.640625 L 21.527344 19.640625 L 21.527344 22.292969 L 21.96875 22.292969 L 21.96875 21.445312 C 21.96875 20.667969 21.976562 20.578125 22.078125 20.367188 C 22.21875 20.074219 22.460938 19.929688 22.695312 20 L 22.855469 20.046875 L 22.855469 19.585938 Z M 7.789062 20.246094 L 7.789062 18.554688 L 7.34375 18.554688 L 7.34375 22.296875 L 9.207031 22.296875 L 9.207031 21.855469 L 7.789062 21.855469 Z M 18.042969 20.773438 L 17.679688 21.78125 L 17.328125 20.765625 L 16.96875 19.640625 L 16.515625 19.640625 C 16.808594 20.527344 17.128906 21.425781 17.453125 22.296875 C 17.59375 22.300781 17.734375 22.296875 17.871094 22.296875 L 18.367188 20.984375 L 18.867188 19.644531 L 18.433594 19.644531 C 18.433594 19.644531 18.242188 20.175781 18.042969 20.773438 Z M 8.808594 17.535156 C 8.878906 17.535156 8.941406 17.511719 8.988281 17.457031 C 9.039062 17.40625 9.0625 17.347656 9.0625 17.269531 C 9.0625 17.195312 9.039062 17.132812 8.988281 17.082031 C 8.941406 17.035156 8.882812 17.011719 8.8125 17.011719 C 8.742188 17.011719 8.679688 17.035156 8.632812 17.085938 C 8.582031 17.136719 8.5625 17.199219 8.5625 17.273438 C 8.5625 17.351562 8.582031 17.414062 8.632812 17.460938 C 8.679688 17.511719 8.738281 17.535156 8.808594 17.535156 Z M 8.652344 17.105469 C 8.695312 17.058594 8.746094 17.039062 8.8125 17.039062 C 8.875 17.039062 8.925781 17.058594 8.96875 17.105469 C 9.011719 17.148438 9.035156 17.203125 9.035156 17.269531 C 9.035156 17.335938 9.011719 17.394531 8.96875 17.441406 C 8.925781 17.484375 8.875 17.507812 8.8125 17.507812 C 8.75 17.507812 8.699219 17.484375 8.65625 17.441406 C 8.613281 17.394531 8.589844 17.335938 8.589844 17.269531 C 8.589844 17.203125 8.609375 17.148438 8.652344 17.105469 Z M 8.757812 17.296875 L 8.785156 17.296875 C 8.808594 17.296875 8.828125 17.316406 8.84375 17.355469 L 8.878906 17.4375 L 8.933594 17.4375 L 8.890625 17.347656 C 8.871094 17.308594 8.855469 17.289062 8.835938 17.28125 C 8.859375 17.277344 8.878906 17.269531 8.894531 17.25 C 8.910156 17.234375 8.914062 17.210938 8.914062 17.1875 C 8.914062 17.160156 8.90625 17.140625 8.890625 17.125 C 8.871094 17.109375 8.839844 17.097656 8.796875 17.097656 L 8.707031 17.097656 L 8.707031 17.4375 L 8.753906 17.4375 L 8.753906 17.296875 Z M 8.757812 17.136719 L 8.796875 17.136719 C 8.828125 17.136719 8.847656 17.144531 8.859375 17.152344 C 8.867188 17.160156 8.871094 17.171875 8.871094 17.195312 C 8.871094 17.234375 8.847656 17.253906 8.804688 17.253906 L 8.757812 17.253906 Z M 1.429688 17.265625 C 1.429688 17.148438 1.429688 17.058594 1.425781 17.007812 L 1.429688 17.007812 C 1.441406 17.066406 1.453125 17.113281 1.464844 17.144531 L 1.890625 18.152344 L 1.960938 18.152344 L 2.386719 17.136719 C 2.398438 17.105469 2.410156 17.066406 2.425781 17.007812 L 2.429688 17.007812 C 2.421875 17.109375 2.417969 17.195312 2.417969 17.265625 L 2.417969 18.15625 L 2.5625 18.15625 L 2.5625 16.832031 L 2.378906 16.832031 L 1.988281 17.753906 C 1.972656 17.789062 1.953125 17.84375 1.929688 17.917969 L 1.921875 17.917969 C 1.914062 17.878906 1.894531 17.824219 1.867188 17.757812 L 1.484375 16.828125 L 1.289062 16.828125 L 1.289062 18.152344 L 1.429688 18.152344 Z M 2.882812 17.265625 L 3.007812 17.265625 L 3.007812 18.089844 L 2.882812 18.089844 Z M 2.945312 16.964844 C 2.972656 16.964844 2.992188 16.957031 3.011719 16.9375 C 3.027344 16.917969 3.039062 16.894531 3.039062 16.867188 C 3.039062 16.839844 3.03125 16.816406 3.011719 16.796875 C 2.992188 16.78125 2.972656 16.769531 2.945312 16.769531 C 2.917969 16.769531 2.894531 16.78125 2.878906 16.796875 C 2.863281 16.816406 2.851562 16.839844 2.851562 16.867188 C 2.851562 16.898438 2.859375 16.917969 2.878906 16.9375 C 2.898438 16.957031 2.917969 16.964844 2.945312 16.964844 Z M 3.90625 18.109375 L 3.90625 17.964844 C 3.835938 18.019531 3.761719 18.046875 3.683594 18.046875 C 3.59375 18.046875 3.519531 18.011719 3.464844 17.949219 C 3.410156 17.886719 3.382812 17.796875 3.382812 17.6875 C 3.382812 17.574219 3.410156 17.484375 3.46875 17.414062 C 3.527344 17.347656 3.601562 17.3125 3.695312 17.3125 C 3.769531 17.3125 3.839844 17.335938 3.90625 17.386719 L 3.90625 17.230469 C 3.84375 17.199219 3.777344 17.183594 3.699219 17.183594 C 3.554688 17.183594 3.445312 17.230469 3.363281 17.324219 C 3.28125 17.417969 3.238281 17.546875 3.238281 17.699219 C 3.238281 17.835938 3.273438 17.953125 3.351562 18.039062 C 3.429688 18.128906 3.535156 18.175781 3.660156 18.175781 C 3.757812 18.171875 3.835938 18.152344 3.90625 18.109375 Z M 4.265625 17.671875 C 4.265625 17.5625 4.289062 17.472656 4.332031 17.414062 C 4.371094 17.359375 4.417969 17.332031 4.476562 17.332031 C 4.523438 17.332031 4.558594 17.339844 4.585938 17.363281 L 4.585938 17.203125 C 4.566406 17.195312 4.535156 17.191406 4.5 17.191406 C 4.449219 17.191406 4.402344 17.210938 4.363281 17.242188 C 4.320312 17.28125 4.285156 17.335938 4.265625 17.402344 L 4.261719 17.402344 L 4.261719 17.210938 L 4.121094 17.210938 L 4.121094 18.15625 L 4.261719 18.15625 L 4.261719 17.671875 Z M 5.085938 18.175781 C 5.21875 18.175781 5.328125 18.128906 5.40625 18.035156 C 5.488281 17.945312 5.527344 17.824219 5.527344 17.671875 C 5.527344 17.519531 5.492188 17.402344 5.417969 17.3125 C 5.34375 17.226562 5.238281 17.183594 5.105469 17.183594 C 4.96875 17.183594 4.863281 17.226562 4.78125 17.308594 C 4.695312 17.398438 4.652344 17.523438 4.652344 17.6875 C 4.652344 17.832031 4.6875 17.949219 4.765625 18.035156 C 4.84375 18.128906 4.949219 18.175781 5.085938 18.175781 Z M 4.882812 17.402344 C 4.9375 17.34375 5.007812 17.3125 5.097656 17.3125 C 5.1875 17.3125 5.257812 17.34375 5.308594 17.402344 C 5.359375 17.46875 5.382812 17.558594 5.382812 17.679688 C 5.382812 17.796875 5.363281 17.886719 5.3125 17.945312 C 5.265625 18.011719 5.191406 18.042969 5.097656 18.042969 C 5.007812 18.042969 4.9375 18.011719 4.882812 17.945312 C 4.828125 17.882812 4.800781 17.796875 4.800781 17.679688 C 4.796875 17.566406 4.824219 17.472656 4.882812 17.402344 Z M 6.152344 18.089844 C 6.207031 18.039062 6.234375 17.976562 6.234375 17.898438 C 6.234375 17.828125 6.214844 17.769531 6.171875 17.726562 C 6.136719 17.6875 6.082031 17.65625 6.003906 17.621094 C 5.9375 17.59375 5.894531 17.566406 5.871094 17.542969 C 5.847656 17.519531 5.832031 17.488281 5.832031 17.445312 C 5.832031 17.40625 5.847656 17.375 5.875 17.351562 C 5.90625 17.328125 5.941406 17.316406 5.992188 17.316406 C 6.066406 17.316406 6.132812 17.339844 6.195312 17.382812 L 6.195312 17.230469 C 6.136719 17.203125 6.074219 17.1875 6 17.1875 C 5.910156 17.1875 5.832031 17.214844 5.777344 17.265625 C 5.714844 17.316406 5.6875 17.382812 5.6875 17.460938 C 5.6875 17.53125 5.707031 17.589844 5.746094 17.632812 C 5.777344 17.667969 5.828125 17.703125 5.902344 17.738281 C 5.976562 17.769531 6.023438 17.800781 6.050781 17.824219 C 6.074219 17.847656 6.085938 17.878906 6.085938 17.914062 C 6.085938 18.003906 6.03125 18.050781 5.917969 18.050781 C 5.832031 18.050781 5.753906 18.019531 5.6875 17.957031 L 5.6875 18.121094 C 5.75 18.160156 5.824219 18.179688 5.90625 18.179688 C 6.011719 18.175781 6.09375 18.144531 6.152344 18.09375 Z M 6.832031 17.183594 C 6.699219 17.183594 6.589844 17.226562 6.511719 17.308594 C 6.425781 17.398438 6.378906 17.523438 6.378906 17.6875 C 6.378906 17.832031 6.417969 17.949219 6.492188 18.035156 C 6.574219 18.128906 6.679688 18.171875 6.8125 18.171875 C 6.949219 18.171875 7.054688 18.128906 7.136719 18.035156 C 7.214844 17.945312 7.257812 17.824219 7.257812 17.671875 C 7.257812 17.519531 7.21875 17.402344 7.144531 17.3125 C 7.066406 17.226562 6.964844 17.183594 6.832031 17.183594 Z M 7.109375 17.679688 C 7.109375 17.796875 7.085938 17.886719 7.039062 17.945312 C 6.988281 18.011719 6.917969 18.042969 6.824219 18.042969 C 6.734375 18.042969 6.660156 18.011719 6.605469 17.945312 C 6.554688 17.882812 6.527344 17.796875 6.527344 17.679688 C 6.527344 17.558594 6.554688 17.464844 6.613281 17.402344 C 6.667969 17.339844 6.738281 17.308594 6.828125 17.308594 C 6.914062 17.308594 6.988281 17.339844 7.039062 17.402344 C 7.085938 17.46875 7.109375 17.558594 7.109375 17.679688 Z M 7.496094 18.152344 L 7.636719 18.152344 L 7.636719 17.335938 L 7.847656 17.335938 L 7.847656 17.207031 L 7.636719 17.207031 L 7.636719 17.0625 C 7.636719 16.929688 7.6875 16.863281 7.785156 16.863281 C 7.820312 16.863281 7.855469 16.871094 7.878906 16.886719 L 7.878906 16.75 C 7.855469 16.738281 7.820312 16.734375 7.777344 16.734375 C 7.699219 16.734375 7.636719 16.757812 7.585938 16.8125 C 7.527344 16.871094 7.496094 16.949219 7.496094 17.054688 L 7.496094 17.210938 L 7.34375 17.210938 L 7.34375 17.339844 L 7.496094 17.339844 Z M 8.082031 17.894531 C 8.082031 18.078125 8.15625 18.171875 8.316406 18.171875 C 8.371094 18.171875 8.414062 18.164062 8.449219 18.140625 L 8.449219 18.011719 C 8.421875 18.035156 8.390625 18.042969 8.359375 18.042969 C 8.308594 18.042969 8.273438 18.03125 8.253906 18.003906 C 8.234375 17.976562 8.222656 17.929688 8.222656 17.867188 L 8.222656 17.335938 L 8.449219 17.335938 L 8.449219 17.207031 L 8.222656 17.207031 L 8.222656 16.929688 C 8.175781 16.945312 8.125 16.960938 8.082031 16.976562 L 8.082031 17.207031 L 7.925781 17.207031 L 7.925781 17.335938 L 8.082031 17.335938 Z M 23.410156 19.636719 C 23.363281 19.585938 23.304688 19.5625 23.234375 19.5625 C 23.160156 19.5625 23.101562 19.585938 23.054688 19.640625 C 23.003906 19.691406 22.984375 19.753906 22.984375 19.828125 C 22.984375 19.902344 23.003906 19.964844 23.054688 20.015625 C 23.101562 20.0625 23.160156 20.085938 23.234375 20.085938 C 23.304688 20.085938 23.363281 20.0625 23.414062 20.011719 C 23.460938 19.960938 23.488281 19.898438 23.488281 19.824219 C 23.484375 19.746094 23.460938 19.683594 23.410156 19.636719 Z M 23.386719 19.992188 C 23.34375 20.039062 23.292969 20.058594 23.230469 20.058594 C 23.167969 20.058594 23.117188 20.039062 23.074219 19.992188 C 23.03125 19.949219 23.007812 19.890625 23.007812 19.824219 C 23.007812 19.757812 23.027344 19.703125 23.070312 19.65625 C 23.113281 19.613281 23.164062 19.589844 23.230469 19.589844 C 23.292969 19.589844 23.34375 19.613281 23.386719 19.65625 C 23.429688 19.703125 23.453125 19.757812 23.453125 19.824219 C 23.453125 19.894531 23.433594 19.949219 23.386719 19.992188 Z M 23.257812 19.839844 C 23.285156 19.832031 23.304688 19.820312 23.320312 19.804688 C 23.335938 19.789062 23.339844 19.769531 23.339844 19.746094 C 23.339844 19.71875 23.332031 19.695312 23.3125 19.679688 C 23.292969 19.664062 23.261719 19.65625 23.222656 19.65625 L 23.132812 19.65625 L 23.132812 19.992188 L 23.175781 19.992188 L 23.175781 19.851562 L 23.207031 19.851562 C 23.226562 19.851562 23.246094 19.871094 23.261719 19.910156 L 23.296875 19.992188 L 23.351562 19.992188 L 23.308594 19.902344 C 23.292969 19.863281 23.277344 19.84375 23.257812 19.839844 Z M 23.226562 19.808594 L 23.179688 19.808594 L 23.179688 19.695312 L 23.21875 19.695312 C 23.246094 19.695312 23.269531 19.699219 23.28125 19.710938 C 23.289062 19.71875 23.292969 19.730469 23.292969 19.75 C 23.292969 19.789062 23.269531 19.808594 23.226562 19.808594 Z M 15.257812 17.167969 L 15.300781 17.167969 L 15.300781 16.828125 L 15.40625 16.828125 L 15.40625 16.785156 L 15.152344 16.785156 L 15.152344 16.828125 L 15.257812 16.828125 Z M 15.5 16.914062 C 15.5 16.878906 15.5 16.851562 15.5 16.835938 C 15.5 16.855469 15.507812 16.867188 15.511719 16.878906 L 15.632812 17.167969 L 15.652344 17.167969 L 15.777344 16.875 C 15.777344 16.863281 15.78125 16.851562 15.789062 16.835938 C 15.785156 16.867188 15.785156 16.890625 15.785156 16.910156 L 15.785156 17.167969 L 15.828125 17.167969 L 15.828125 16.785156 L 15.777344 16.785156 L 15.664062 17.050781 C 15.660156 17.058594 15.652344 17.078125 15.648438 17.097656 L 15.644531 17.097656 C 15.640625 17.085938 15.636719 17.074219 15.628906 17.054688 L 15.515625 16.785156 L 15.457031 16.785156 L 15.457031 17.167969 L 15.5 17.167969 Z M 15.5 16.914062 "/>
</g>
</svg>
