<svg width="350" height="57" viewBox="0 0 350 57" fill="none" xmlns="http://www.w3.org/2000/svg">
<path d="M12.6488 0.787647C8.53291 1.89191 4.7182 4.3012 2.86104 7.01165C0.853291 9.92288 0.501936 15.3438 2.15832 18.757C4.11588 22.7724 7.8804 24.9308 18.2203 27.842C21.6836 28.8459 25.5485 30.1509 26.8034 30.8034C32.3749 33.6143 32.5756 39.3363 27.1547 42.097C25.4482 43.0005 24.1431 43.2514 20.9809 43.2514C14.8071 43.2514 11.3438 41.0429 10.0387 36.1741L9.48659 34.0158H4.76839H0L0.351355 36.6259C1.556 45.46 7.72982 50.2785 18.7724 50.9311C32.676 51.7844 42.2128 44.5063 40.3055 34.5178C39.7031 31.2552 38.7495 29.4984 36.5409 27.591C33.5795 24.981 31.622 24.1277 21.5331 21.1663C12.3476 18.4558 10.1893 16.95 10.1893 13.336C10.1893 9.47114 14.9577 6.96146 21.1817 7.56378C26.4018 8.01553 29.7648 10.5252 30.9193 14.7917L31.4714 16.95H36.0892H40.7572L40.456 15.0426C39.402 7.61398 36.3402 3.74907 29.4636 1.28958C25.2976 -0.166032 17.1662 -0.467193 12.6488 0.787647Z" fill="#333333"/>
<path d="M66.4436 0.376445C61.3741 1.38032 54.6105 4.60232 52.0506 7.46336C49.9927 9.72207 47.7842 13.6874 46.8305 16.8998C45.5756 20.8651 45.4753 28.9462 46.5795 33.2629C49.6413 44.958 60.182 51.7341 73.9852 50.8808L78.7536 50.5797L80.2092 53.5913L81.6648 56.6029H86.634H91.6032L90.9005 55.4986C90.4989 54.8461 89.2943 52.7882 88.2904 50.931L86.383 47.5179L89.5954 44.5564C96.6225 38.1317 99.1824 28.1431 96.5221 17.7029C93.6611 6.61007 85.6301 0.586833 72.9312 0.135091C70.0199 0.0347035 67.1464 0.276058 66.4436 0.376445ZM79.7073 10.5252C82.8695 12.1816 85.1282 14.4905 86.5838 17.7029C87.5877 19.8612 87.7383 21.0156 87.7383 25.7338C87.7383 30.5524 87.5877 31.5563 86.5336 33.5138C85.3792 35.7726 82.6185 39.0351 81.9158 39.0351C81.715 39.0351 80.8116 37.6799 79.8579 36.0235L78.2015 33.0119H73.8346C71.3752 33.0119 69.4176 33.1123 69.4176 33.2127C69.4176 33.3131 70.4717 35.371 71.7265 37.7301L74.0354 42.0468H70.9736C66.2554 42.0468 62.6415 40.5409 59.5295 37.3788C56.3673 34.066 55.3634 31.1046 55.3634 25.0311C55.4136 20.2627 56.0661 17.9036 58.1742 14.8418C61.1858 10.5252 65.2013 8.86878 72.1782 9.06956C76.3945 9.22014 77.5992 9.42091 79.7073 10.5252Z" fill="#333333"/>
<path d="M104.654 0.752921C104.503 1.15447 104.553 9.72209 104.654 19.3091C104.854 36.1741 104.905 36.8768 106.059 39.7881C108.418 45.8113 114.542 50.0276 122.272 50.8307L125.635 51.182V46.6144C125.635 42.5391 125.923 42.5391 124.794 42.5391C123.1 42.5391 118.306 40.039 116.951 38.6336C114.19 35.7726 114.09 34.9695 114.09 16.95V0.386079H109.573C106.009 0.386079 104.654 0.386079 104.654 0.752921Z" fill="#333333"/>
<path d="M137.179 16.448V32.259L141.923 32.259L146.465 32.259V16.448V0.335894H141.734H137.179V16.448Z" fill="#333333"/>
<path d="M155.751 0.385998C155.751 0.56462 155.751 2.59452 155.751 4.50187V7.91504H160.519H165.287V4.15052V0.385998H160.87C158.411 0.385998 155.475 0.385998 155.751 0.385998Z" fill="#333333"/>
<path d="M175.326 4.65256V8.91902H186.77C196.909 8.91902 198.415 9.0696 200.272 9.92289C203.334 11.2781 204.539 13.4364 204.288 17.1006C204.087 20.4635 203.033 22.1701 200.122 23.6759C198.365 24.6296 197.16 24.73 186.77 24.8806L175.326 25.0312V37.8305V50.5797H180.095H184.863V41.7958V33.0119H190.585H196.357L201.025 41.7958L205.693 50.5797H210.863C213.674 50.5797 215.983 50.4291 215.983 50.2786C215.983 50.128 213.524 45.8615 210.462 40.792C207.45 35.7224 204.94 31.3556 204.94 31.1046C204.94 30.8034 205.392 30.4521 205.944 30.2513C207.601 29.7494 211.164 25.2821 212.218 22.4211C213.574 18.757 213.524 12.5832 212.118 9.42095C208.805 1.9923 203.987 0.436298 184.763 0.386104H175.326V4.65256Z" fill="#333333"/>
<path d="M267.683 5.15446V9.92285H286.003H304.324V5.15446V0.386067H286.003H267.683V5.15446Z" fill="#333333"/>
<path d="M313.861 25.4829V50.5797H331.931H350V45.8113V41.0429H336.699H323.398L323.297 20.8149L323.297 0.335911H318.667H313.861V25.4829Z" fill="#333333"/>
<path d="M155.851 32.6104L156.04 50.6299L160.745 50.6328L165.288 50.6299V32.7609V14.9422H160.519H155.751L155.851 32.6104Z" fill="#333333"/>
<path d="M267.683 25.4829V30.0004H286.003H304.324V25.4829V20.9655H286.003H267.683V25.4829Z" fill="#333333"/>
<path d="M267.683 45.6607V50.3287H286.003H304.324V45.6607V41.0429H286.003H267.683V45.6607Z" fill="#333333"/>
<path d="M221 4.51047V8.77693H232.444C242.583 8.77693 244.089 8.92751 245.946 9.7808C249.008 11.136 250.213 13.2944 249.962 16.9585C249.761 20.3215 248.707 22.028 245.796 23.5338C244.039 24.4875 242.834 24.5879 232.444 24.7385L221 24.8891V37.6884V50.4376H225.768H230.537V41.6537V32.8699H236.259H242.031L246.699 41.6537L251.367 50.4376H256.537C259.348 50.4376 261.657 50.287 261.657 50.1365C261.657 49.9859 259.197 45.7194 256.136 40.6499C253.124 35.5803 250.614 31.2135 250.614 30.9625C250.614 30.6613 251.066 30.31 251.618 30.1092C253.274 29.6073 256.838 25.14 257.892 22.279C259.248 18.6149 259.197 12.4411 257.792 9.27886C254.479 1.85021 249.661 0.294208 230.436 0.244014H221V4.51047Z" fill="#333333"/>
</svg>
