<svg width="16" height="14" viewBox="0 0 16 14" fill="none" xmlns="http://www.w3.org/2000/svg">
<path d="M11.3332 13V11.6667C11.3332 10.9594 11.0522 10.2811 10.5521 9.78105C10.052 9.28095 9.37375 9 8.6665 9H3.33317C2.62593 9 1.94765 9.28095 1.44755 9.78105C0.947456 10.2811 0.666504 10.9594 0.666504 11.6667V13M15.3332 13V11.6667C15.3327 11.0758 15.1361 10.5018 14.7741 10.0349C14.4121 9.56791 13.9053 9.23438 13.3332 9.08667M10.6665 1.08667C11.2401 1.23353 11.7485 1.56713 12.1116 2.03487C12.4747 2.50261 12.6717 3.07789 12.6717 3.67C12.6717 4.26211 12.4747 4.83739 12.1116 5.30513C11.7485 5.77287 11.2401 6.10647 10.6665 6.25333M8.6665 3.66667C8.6665 5.13943 7.4726 6.33333 5.99984 6.33333C4.52708 6.33333 3.33317 5.13943 3.33317 3.66667C3.33317 2.19391 4.52708 1 5.99984 1C7.4726 1 8.6665 2.19391 8.6665 3.66667Z" stroke="#282828" stroke-width="2" stroke-linecap="round" stroke-linejoin="round"/>
</svg>
